<svg xmlns="http://www.w3.org/2000/svg" width="15.682" height="17.165" viewBox="0 0 15.682 17.165">
  <g id="Grupo_429" data-name="Grupo 429" transform="translate(0 0)">
    <path id="Trazado_675" data-name="Trazado 675" d="M744.236,258.236a.707.707,0,0,0-.809.057c-.152.113-.288.248-.436.378-.755-.937-1.5-1.855-2.238-2.779a.893.893,0,0,0-.744-.358c-1.227,0-2.455,0-3.682,0h-.189v-3.428h.209q1.8,0,3.6,0a1.455,1.455,0,0,0,.3-.025.741.741,0,0,0,.58-.825.764.764,0,0,0-.833-.663q-1.833,0-3.665,0h-.18c-.076-.5.1-1-.166-1.465.046-.022.09-.044.134-.064a1.858,1.858,0,0,0,1.176-1.58,1.826,1.826,0,0,0-.931-1.859,4.211,4.211,0,0,0-.751-.283h-.465a.447.447,0,0,1-.077.028,1.931,1.931,0,0,0-.43,3.7c.044.019.087.042.13.064l-.052,0a3.521,3.521,0,0,0-.1.575c-.007,2.145,0,4.29,0,6.435a.79.79,0,0,0,.9.907c1.354,0,2.709,0,4.063,0a.314.314,0,0,1,.278.132q1.222,1.528,2.453,3.049a.758.758,0,0,0,1.1.114c.328-.289.645-.589.965-.886a.731.731,0,0,0,.251-.507A.717.717,0,0,0,744.236,258.236Z" transform="translate(-728.946 -245.342)" fill="#9d9d9d"/>
    <path id="Trazado_676" data-name="Trazado 676" d="M671.249,341.179a1.659,1.659,0,0,0-.418.455,4.621,4.621,0,0,1-4.43,2.124,4.5,4.5,0,0,1-3.014-1.534,4.7,4.7,0,0,1-.508-5.585,4.923,4.923,0,0,1,1.728-1.658.743.743,0,0,0,.3-1.028.752.752,0,0,0-1.063-.265,6.083,6.083,0,0,0-3.177,5.246,6.329,6.329,0,0,0,1.631,4.331,6.195,6.195,0,0,0,8.935.244,5.774,5.774,0,0,0,1-1.278.744.744,0,0,0-.1-.917A.705.705,0,0,0,671.249,341.179Z" transform="translate(-660.67 -328.126)" fill="#9d9d9d"/>
  </g>
</svg>
