<svg xmlns="http://www.w3.org/2000/svg" xmlns:xlink="http://www.w3.org/1999/xlink" width="97" height="97" viewBox="0 0 97 97">
  <defs>
    <clipPath id="clip-path">
      <rect id="Rectángulo_86" data-name="Rectángulo 86" width="75.762" height="33.075" fill="none" stroke="rgba(0,0,0,0)" stroke-width="1"/>
    </clipPath>
  </defs>
  <g id="Grupo_533" data-name="Grupo 533" transform="translate(-375 -198)">
    <g id="Trazado_760" data-name="Trazado 760" transform="translate(375 198)" fill="#f5f5f5">
      <path d="M 48.5 96.5 C 44.85178756713867 96.5 41.2192497253418 96.08892822265625 37.70331192016602 95.27819061279297 C 34.27588653564453 94.48786163330078 30.92787551879883 93.3109130859375 27.75228691101074 91.78001403808594 C 24.6278247833252 90.27376556396484 21.64886283874512 88.41486358642578 18.89814949035645 86.25495147705078 C 16.16300010681152 84.10724639892578 13.63851261138916 81.65027618408203 11.39480018615723 78.95226287841797 C 4.369162559509277 70.50652313232422 0.5 59.69171142578125 0.5 48.5 C 0.5 42.01982498168945 1.769037485122681 35.73374938964844 4.271874904632568 29.81638717651367 C 6.689424991607666 24.10063743591309 10.15047454833984 18.96727561950684 14.55887508392334 14.55887508392334 C 18.96727561950684 10.15047454833984 24.10063743591309 6.689424991607666 29.81638717651367 4.271874904632568 C 35.73374938964844 1.769037485122681 42.01982498168945 0.5 48.5 0.5 C 54.98017501831055 0.5 61.26625061035156 1.769037485122681 67.18360900878906 4.271874904632568 C 72.89936065673828 6.689424991607666 78.03272247314453 10.15047454833984 82.44112396240234 14.55887508392334 C 86.84952545166016 18.96727561950684 90.31057739257812 24.10063743591309 92.72812652587891 29.81638717651367 C 95.23096466064453 35.73374938964844 96.5 42.01982498168945 96.5 48.5 C 96.5 54.98017501831055 95.23096466064453 61.26625061035156 92.72812652587891 67.18360900878906 C 90.31057739257812 72.89936065673828 86.84952545166016 78.03272247314453 82.44112396240234 82.44112396240234 C 78.03272247314453 86.84952545166016 72.89936065673828 90.31057739257812 67.18360900878906 92.72812652587891 C 61.26625061035156 95.23096466064453 54.98017501831055 96.5 48.5 96.5 Z" stroke="none"/>
      <path d="M 48.5 1 C 42.08709335327148 1 35.86656188964844 2.255744934082031 30.01116180419922 4.732376098632812 C 24.35501098632812 7.124717712402344 19.27507019042969 10.54978942871094 14.91242980957031 14.91242980957031 C 10.54978942871094 19.27507019042969 7.124717712402344 24.35501098632812 4.732376098632812 30.01116180419922 C 2.255744934082031 35.86656188964844 1 42.08709335327148 1 48.5 C 1 59.57513427734375 4.828109741210938 70.27638244628906 11.77922821044922 78.63256072998047 C 14.00044250488281 81.30350494384766 16.49948120117188 83.73573303222656 19.20693206787109 85.8616943359375 C 21.92929077148438 87.99934387207031 24.87741088867188 89.83902740478516 27.96941375732422 91.32961273193359 C 31.11160278320312 92.84441375732422 34.42435836791992 94.00897216796875 37.81566619873047 94.79096984863281 C 41.29481506347656 95.59322357177734 44.88953399658203 96 48.5 96 C 54.91290664672852 96 61.13343811035156 94.74425506591797 66.98883819580078 92.26762390136719 C 72.64498901367188 89.87528228759766 77.72492980957031 86.45021057128906 82.08757019042969 82.08757019042969 C 86.45021057128906 77.72492980957031 89.87528228759766 72.64498901367188 92.26762390136719 66.98883819580078 C 94.74425506591797 61.13343811035156 96 54.91290664672852 96 48.5 C 96 42.08709335327148 94.74425506591797 35.86656188964844 92.26762390136719 30.01116180419922 C 89.87528228759766 24.35501098632812 86.45021057128906 19.27507019042969 82.08757019042969 14.91242980957031 C 77.72492980957031 10.54978942871094 72.64498901367188 7.124717712402344 66.98883819580078 4.732376098632812 C 61.13343811035156 2.255744934082031 54.91290664672852 1 48.5 1 M 48.5 0 C 75.28581237792969 0 97 21.71418762207031 97 48.5 C 97 75.28581237792969 75.28581237792969 97 48.5 97 C 33.49994659423828 97 20.09034729003906 90.1904296875 11.01036071777344 79.27195739746094 C 4.203865051269531 71.08965301513672 0 60.28575897216797 0 48.5 C 0 21.71418762207031 21.71418762207031 0 48.5 0 Z" stroke="none" fill="#d1cfcf"/>
    </g>
    <g id="Grupo_532" data-name="Grupo 532" transform="translate(921.539 166.065)">
      <path id="Trazado_706" data-name="Trazado 706" d="M-407.6,180.834a44.9,44.9,0,0,1-44.939-45.386,44.97,44.97,0,0,1,44.955-44.513A44.99,44.99,0,0,1-362.636,136,44.95,44.95,0,0,1-407.6,180.834Zm28.253-16.4c9.183-8.426,15.373-24.527,10.093-40.883a40.29,40.29,0,0,0-42.358-27.731,40.271,40.271,0,0,0-35.788,34.04,39.467,39.467,0,0,0,4.618,25.583,39.263,39.263,0,0,0,9,10.994c4.92-12.019,13.557-19.172,26.587-19.628S-385.038,152.893-379.344,164.436Z" transform="translate(-90 -55)" fill="#e6e6e6" stroke="rgba(0,0,0,0)" stroke-width="1"/>
    </g>
    <g id="Grupo_122" data-name="Grupo 122" transform="translate(385.619 222.521)">
      <g id="Grupo_121" data-name="Grupo 121" clip-path="url(#clip-path)">
        <path id="Trazado_634" data-name="Trazado 634" d="M77.262,22.887A13.662,13.662,0,1,1,90.924,36.548,13.662,13.662,0,0,1,77.262,22.887" transform="translate(-53.059 -6.335)" fill="#e6e6e6" stroke="rgba(0,0,0,0)" stroke-width="1"/>
        <path id="Trazado_635" data-name="Trazado 635" d="M132.238,94.925v0h0Z" transform="translate(-90.812 -65.188)" fill="#fff" stroke="rgba(0,0,0,0)" stroke-width="1"/>
        <path id="Trazado_636" data-name="Trazado 636" d="M109.575,30.854s-9.275.038-9.246.01l.012,2.926,5.59-.01a5.85,5.85,0,1,1-1.695-5.829h4.4a9.387,9.387,0,1,0-8.672,13.685c.11,0,.22.008.331.008a9.389,9.389,0,0,0,9.263-7.869c.025-.154.04-.312.057-.468a9.3,9.3,0,0,0,.067-1.05,9.469,9.469,0,0,0-.1-1.4" transform="translate(-62.428 -15.706)" fill="#fff" stroke="rgba(0,0,0,0)" stroke-width="1"/>
        <path id="Trazado_637" data-name="Trazado 637" d="M109.6,10.653v0h0Z" transform="translate(-75.269 -7.316)" fill="#fff" stroke="rgba(0,0,0,0)" stroke-width="1"/>
        <path id="Trazado_638" data-name="Trazado 638" d="M.005,15.157l28.608,2.77a9.466,9.466,0,0,1-.1-1.4,9.29,9.29,0,0,1,.067-1.05c.018-.157.032-.314.057-.468A9.388,9.388,0,0,1,37.9,7.136c.111,0,.221,0,.331.008L35.385,0l-1.05,3.337h0a13.661,13.661,0,0,0-9.406,8.883L.005,15.157H0" fill="#d1cfcf" stroke="rgba(0,0,0,0)" stroke-width="1"/>
        <path id="Trazado_639" data-name="Trazado 639" d="M132.241,94.926v0h0Z" transform="translate(-90.814 -65.188)" fill="#fff" stroke="rgba(0,0,0,0)" stroke-width="1"/>
        <path id="Trazado_640" data-name="Trazado 640" d="M158.046,51.126h-.005L133.117,54.06a13.665,13.665,0,0,1-9.406,8.884h0l-1.05,3.337-2.842-7.144c.11,0,.22.008.331.008a9.389,9.389,0,0,0,9.263-7.869c.025-.154.04-.311.057-.468a9.3,9.3,0,0,0,.067-1.05,9.468,9.468,0,0,0-.1-1.4l28.608,2.77" transform="translate(-82.284 -33.208)" fill="#d1cfcf" stroke="rgba(0,0,0,0)" stroke-width="1"/>
      </g>
    </g>
  </g>
</svg>

