<svg xmlns="http://www.w3.org/2000/svg" width="21.101" height="21.101" viewBox="0 0 21.101 21.101">
  <g id="Grupo_258" data-name="Grupo 258" transform="translate(-1319.066 -175.067)">
    <g id="Grupo_259" data-name="Grupo 259">
      <path id="Trazado_650" data-name="Trazado 650" d="M55.454,5.5,53.811,8l-1.6-2.5h-3.07L52.31,9.7l-3.536,4.418h3.07l1.943-2.865,1.887,2.865h3.07L55.3,9.7l3.227-4.2Z" transform="translate(1275.857 175.809)" fill="#e0e0e0"/>
      <g id="Trazado_651" data-name="Trazado 651" transform="translate(1319.066 175.067)" fill="none">
        <path d="M10.55,0A10.55,10.55,0,1,1,0,10.55,10.55,10.55,0,0,1,10.55,0Z" stroke="none"/>
        <path d="M 10.55029296875 1.700002670288086 C 5.670223236083984 1.700002670288086 1.700002670288086 5.670223236083984 1.700002670288086 10.55029296875 C 1.700002670288086 15.43036270141602 5.670223236083984 19.40058326721191 10.55029296875 19.40058326721191 C 15.43036270141602 19.40058326721191 19.40058326721191 15.43036270141602 19.40058326721191 10.55029296875 C 19.40058326721191 5.670223236083984 15.43036270141602 1.700002670288086 10.55029296875 1.700002670288086 M 10.55029296875 3.814697265625e-06 C 16.3770637512207 3.814697265625e-06 21.10058212280273 4.723522186279297 21.10058212280273 10.55029296875 C 21.10058212280273 16.3770637512207 16.3770637512207 21.10058212280273 10.55029296875 21.10058212280273 C 4.723522186279297 21.10058212280273 3.814697265625e-06 16.3770637512207 3.814697265625e-06 10.55029296875 C 3.814697265625e-06 4.723522186279297 4.723522186279297 3.814697265625e-06 10.55029296875 3.814697265625e-06 Z" stroke="none" fill="#e0e0e0"/>
      </g>
    </g>
  </g>
</svg>
