<svg xmlns="http://www.w3.org/2000/svg" width="19.794" height="19.786" viewBox="0 0 19.794 19.786">
  <g id="Grupo_380" data-name="Grupo 380" transform="translate(-105.969 -475.885)">
    <path id="Trazado_671" data-name="Trazado 671" d="M125.759,492.362a3.294,3.294,0,0,1-3.141,3.306,3.211,3.211,0,0,1-3.418-3.1,1.318,1.318,0,0,0-.913-1.365c-1.917-.918-3.813-1.877-5.706-2.843a1.084,1.084,0,0,0-1.367.052,3.2,3.2,0,0,1-4.442-.486,3.279,3.279,0,0,1,.032-4.333,3.347,3.347,0,0,1,4.48-.465,1.387,1.387,0,0,0,1.143.112c2.015-.95,3.982-2,5.995-2.954a1.181,1.181,0,0,0,.767-1.243,3.244,3.244,0,0,1,3.478-3.153,3.293,3.293,0,1,1-.528,6.564,2.772,2.772,0,0,1-1.424-.512,1.321,1.321,0,0,0-1.729-.1c-1.846.981-3.729,1.893-5.6,2.821-.467.231-.841.4-.849,1.091-.009.731.391.923.889,1.17,1.906.942,3.815,1.878,5.7,2.859a1.144,1.144,0,0,0,1.456-.08,3.027,3.027,0,0,1,3.395-.252A3.243,3.243,0,0,1,125.759,492.362Z" transform="translate(0 0)" fill="#584446"/>
  </g>
</svg>
