<svg xmlns="http://www.w3.org/2000/svg" width="15.857" height="15.455" viewBox="0 0 15.857 15.455">
  <g id="Grupo_95" data-name="Grupo 95" transform="translate(-1141.417 -451.773)">
    <path id="Icon_awesome-arrow-right" data-name="Icon awesome-arrow-right" d="M6.742,3.682,7.527,2.9a.846.846,0,0,1,1.2,0l6.88,6.876a.846.846,0,0,1,0,1.2l-6.88,6.88a.846.846,0,0,1-1.2,0l-.786-.786a.85.85,0,0,1,.014-1.214L11.02,11.79H.849A.847.847,0,0,1,0,10.941V9.808a.847.847,0,0,1,.849-.849H11.02L6.756,4.9A.844.844,0,0,1,6.742,3.682Z" transform="translate(1141.417 449.125)" fill="#fff"/>
  </g>
</svg>
