<svg xmlns="http://www.w3.org/2000/svg" xmlns:xlink="http://www.w3.org/1999/xlink" width="40.693" height="21.539" viewBox="0 0 40.693 21.539">
  <defs>
    <clipPath id="clip-path">
      <rect id="Rectángulo_53" data-name="Rectángulo 53" width="40.693" height="21.539" fill="#fff"/>
    </clipPath>
  </defs>
  <g id="Grupo_54" data-name="Grupo 54" clip-path="url(#clip-path)">
    <path id="Trazado_529" data-name="Trazado 529" d="M38.551,11.624a7.38,7.38,0,0,0-1.623-1.2A4.769,4.769,0,1,0,30,10.43a7.2,7.2,0,0,0-2.767,2.745,8.422,8.422,0,0,0-3.019-2.685,5.96,5.96,0,1,0-7.737,0,8.42,8.42,0,0,0-3.019,2.685,7.2,7.2,0,0,0-2.767-2.745,4.768,4.768,0,1,0-6.927-.009,7.434,7.434,0,0,0-1.622,1.2A7.062,7.062,0,0,0,0,16.69v3.657a1.193,1.193,0,0,0,1.192,1.192H39.5a1.193,1.193,0,0,0,1.192-1.192V16.69a7.065,7.065,0,0,0-2.142-5.066M7.234,4.769A2.384,2.384,0,1,1,4.849,7.153,2.387,2.387,0,0,1,7.234,4.769M12,17.882v1.273H2.384V16.69a4.809,4.809,0,0,1,9.618,0Zm8.344-15.5A3.576,3.576,0,1,1,16.77,5.961a3.581,3.581,0,0,1,3.576-3.576m5.96,16.77H14.386V17.882a5.96,5.96,0,1,1,11.921,0ZM33.459,4.769a2.384,2.384,0,1,1-2.384,2.384,2.385,2.385,0,0,1,2.384-2.384m4.849,14.386H28.691V16.69a4.809,4.809,0,0,1,9.618,0Z" transform="translate(0 0)" fill="#fff" fill-rule="evenodd"/>
  </g>
</svg>
