<svg id="Grupo_116" data-name="Grupo 116" xmlns="http://www.w3.org/2000/svg" xmlns:xlink="http://www.w3.org/1999/xlink" width="29.369" height="38.556" viewBox="0 0 29.369 38.556">
  <defs>
    <clipPath id="clip-path">
      <rect id="Rectángulo_52" data-name="Rectángulo 52" width="29.369" height="38.556" fill="#fff"/>
    </clipPath>
  </defs>
  <g id="Grupo_52" data-name="Grupo 52" clip-path="url(#clip-path)">
    <path id="Trazado_527" data-name="Trazado 527" d="M14.684,0A14.682,14.682,0,0,0,6.778,27.054V37.427a1.129,1.129,0,0,0,1.756.939l6.15-4.1,6.152,4.1a1.13,1.13,0,0,0,1.756-.939V27.054A14.682,14.682,0,0,0,14.684,0m5.649,35.316-5.023-3.348a1.127,1.127,0,0,0-1.252,0L9.037,35.316V28.238a14.665,14.665,0,0,0,11.3,0ZM14.684,27.11A12.426,12.426,0,1,1,27.11,14.684,12.44,12.44,0,0,1,14.684,27.11" transform="translate(0 0)" fill="#fff" fill-rule="evenodd"/>
    <path id="Trazado_528" data-name="Trazado 528" d="M42.09,30.466a1.13,1.13,0,0,0-.917-.775L36.293,29,34.116,24.69a1.13,1.13,0,0,0-2.016,0L29.922,29l-4.88.693a1.13,1.13,0,0,0-.62,1.937l3.514,3.346-.829,4.715a1.13,1.13,0,0,0,1.629,1.2l4.371-2.243,4.372,2.243a1.13,1.13,0,0,0,1.629-1.2l-.829-4.717,3.514-3.346a1.127,1.127,0,0,0,.3-1.162m-5.809,3.288a1.127,1.127,0,0,0-.333,1.014l.541,3.074-2.865-1.471a1.126,1.126,0,0,0-1.031,0l-2.865,1.471.54-3.074a1.128,1.128,0,0,0-.334-1.014L27.67,31.6l3.152-.446a1.133,1.133,0,0,0,.85-.61l1.435-2.84,1.435,2.84a1.133,1.133,0,0,0,.849.61l3.154.446Z" transform="translate(-18.423 -18.423)" fill="#fff" fill-rule="evenodd"/>
  </g>
</svg>
