<svg id="Grupo_94" data-name="Grupo 94" xmlns="http://www.w3.org/2000/svg" xmlns:xlink="http://www.w3.org/1999/xlink" width="24.868" height="24.744" viewBox="0 0 24.868 24.744">
  <defs>
    <clipPath id="clip-path">
      <rect id="Rectángulo_79" data-name="Rectángulo 79" width="24.868" height="24.744" fill="#CC0935"/>
    </clipPath>
  </defs>
  <g id="Grupo_93" data-name="Grupo 93" transform="translate(0 0)" clip-path="url(#clip-path)">
    <path id="Trazado_631" data-name="Trazado 631" d="M18.691,16.46a2.778,2.778,0,0,0-1.956-.806l-.43-.359a9.487,9.487,0,0,0,2.217-6.1A9.26,9.26,0,0,0,8.939.006,9.363,9.363,0,0,0,0,9.048a9.261,9.261,0,0,0,9.3,9.474A9.583,9.583,0,0,0,15.375,16.3l.429.359a2.777,2.777,0,0,0,.811,1.96l5.945,5.961a.56.56,0,0,0,.793,0L24.7,23.223a.559.559,0,0,0,0-.793ZM9.3,15.654h0a6.368,6.368,0,0,1-6.077-4.145,6.5,6.5,0,0,1,8.333-8.373A6.364,6.364,0,0,1,15.733,9.2,6.478,6.478,0,0,1,9.3,15.654" transform="translate(0 0)" fill="#CC0935"/>
  </g>
</svg>
