<svg xmlns="http://www.w3.org/2000/svg" width="19.09" height="16.683" viewBox="0 0 19.09 16.683">
  <g id="Grupo_431" data-name="Grupo 431" transform="translate(0 0)">
    <path id="Trazado_677" data-name="Trazado 677" d="M-686,256.046a6.791,6.791,0,0,1,.182-.679,2.207,2.207,0,0,1,3.289-1.135,2.973,2.973,0,0,1,1.1,3.857,2.2,2.2,0,0,1-3.1.842,2.964,2.964,0,0,1-1.446-2.168.416.416,0,0,0-.033-.083Zm3.773.633a1.824,1.824,0,0,0-.916-1.508,1.087,1.087,0,0,0-1.6.515,1.876,1.876,0,0,0,.763,2.271,1.092,1.092,0,0,0,1.371-.139A1.5,1.5,0,0,0-682.227,256.679Z" transform="translate(686 -250.195)" fill="#9d9d9d"/>
    <path id="Trazado_678" data-name="Trazado 678" d="M-304.251,328.641a6.874,6.874,0,0,1-.413,1.142,2.714,2.714,0,0,1-2.294,1.468,2.143,2.143,0,0,1-2.27-1.716,2.939,2.939,0,0,1,2.8-3.5,2.185,2.185,0,0,1,2.136,1.869,1.4,1.4,0,0,0,.037.141Zm-3.92.289a1.116,1.116,0,0,0,1.482,1.161,1.908,1.908,0,0,0,1.319-1.791,1.106,1.106,0,0,0-1.387-1.117A1.875,1.875,0,0,0-308.171,328.93Z" transform="translate(323.341 -319.658)" fill="#9d9d9d"/>
    <path id="Trazado_679" data-name="Trazado 679" d="M-615.327,346.2a6.1,6.1,0,0,0-2.4.5,2.929,2.929,0,0,1-3.982-2.029,2.629,2.629,0,0,1,.265-2.055c.795-1.289,1.56-2.606,2.475-3.808a4.359,4.359,0,0,1,4.513-1.681,4.475,4.475,0,0,1,3.026,2.05q1.042,1.588,2.052,3.2a2.934,2.934,0,0,1-1.8,4.474,2.757,2.757,0,0,1-1.683-.112A6.222,6.222,0,0,0-615.327,346.2Zm5.3-2.221a1.623,1.623,0,0,0-.264-.936c-.75-1.171-1.466-2.366-2.27-3.5a3.482,3.482,0,0,0-5.583,0c-.8,1.133-1.522,2.327-2.269,3.5a1.7,1.7,0,0,0-.2,1.433,1.831,1.831,0,0,0,2.482,1.181,11.434,11.434,0,0,1,1.638-.477,6.058,6.058,0,0,1,2.77.1c.437.114.86.279,1.287.427A1.82,1.82,0,0,0-610.026,343.984Z" transform="translate(624.202 -330.251)" fill="#9d9d9d"/>
    <path id="Trazado_680" data-name="Trazado 680" d="M-555.85,158.28a3.292,3.292,0,0,1-1.129,2.491,2.518,2.518,0,0,1-3.449-.079,3.494,3.494,0,0,1-.13-4.812,2.575,2.575,0,0,1,4.094.354A3.585,3.585,0,0,1-555.85,158.28Zm-2.892,2.013a1.521,1.521,0,0,0,1.32-.676,2.4,2.4,0,0,0,.017-2.774,1.473,1.473,0,0,0-2.5,0,2.35,2.35,0,0,0-.15,2.506A1.545,1.545,0,0,0-558.742,160.293Z" transform="translate(566.099 -155.028)" fill="#9d9d9d"/>
    <path id="Trazado_681" data-name="Trazado 681" d="M-396.5,197.894a3.3,3.3,0,0,1-1.424,2.822,2.356,2.356,0,0,1-3.638-1.211,3.2,3.2,0,0,1,1.628-3.91,2.349,2.349,0,0,1,3.218,1.378A7,7,0,0,1-396.5,197.894Zm-1.124.091a4.965,4.965,0,0,0-.133-.6,1.238,1.238,0,0,0-1.76-.743,2.1,2.1,0,0,0-.983,2.53,1.239,1.239,0,0,0,1.852.682A2.11,2.11,0,0,0-397.629,197.985Z" transform="translate(412.34 -193.875)" fill="#9d9d9d"/>
  </g>
</svg>
