<svg xmlns="http://www.w3.org/2000/svg" xmlns:xlink="http://www.w3.org/1999/xlink" width="93.219" height="77.795" viewBox="0 0 93.219 77.795">
  <defs>
    <clipPath id="clip-path">
      <rect id="Rectángulo_288" data-name="Rectángulo 288" width="93.218" height="77.795" fill="none"/>
    </clipPath>
  </defs>
  <g id="Grupo_553" data-name="Grupo 553" transform="translate(0.001)">
    <rect id="Rectángulo_283" data-name="Rectángulo 283" width="93.219" height="3.296" transform="translate(-0.001 50.07)" fill="#584446"/>
    <rect id="Rectángulo_284" data-name="Rectángulo 284" width="93.219" height="3.297" transform="translate(-0.001 26.492)" fill="#584446"/>
    <g id="Grupo_552" data-name="Grupo 552" transform="translate(-0.001 0)">
      <g id="Grupo_551" data-name="Grupo 551" clip-path="url(#clip-path)">
        <path id="Trazado_733" data-name="Trazado 733" d="M45.58,2.359A36.546,36.546,0,0,1,79.5,25.314h2.524a38.894,38.894,0,0,0-72.893,0h2.524A36.549,36.549,0,0,1,45.58,2.359" transform="translate(1.025 0)" fill="#584446"/>
        <path id="Trazado_734" data-name="Trazado 734" d="M45.495,69.938a36.549,36.549,0,0,1-33.028-20.9H9.893a38.881,38.881,0,0,0,71.2,0H78.52a36.537,36.537,0,0,1-33.026,20.9" transform="translate(1.11 5.503)" fill="#584446"/>
        <path id="Trazado_735" data-name="Trazado 735" d="M42.96,54.446a19.922,19.922,0,0,1-13.638-5.407H27.643a21.1,21.1,0,0,0,30.633,0H56.6A19.921,19.921,0,0,1,42.96,54.446" transform="translate(3.103 5.503)" fill="#584446"/>
        <path id="Trazado_736" data-name="Trazado 736" d="M42.96,18.021a19.917,19.917,0,0,1,13.637,5.4h1.679a21.112,21.112,0,0,0-30.633,0h1.678a19.918,19.918,0,0,1,13.638-5.4" transform="translate(3.103 1.89)" fill="#584446"/>
        <path id="Trazado_737" data-name="Trazado 737" d="M24.253,41.2a3.687,3.687,0,0,1-.5,1.883,1.126,1.126,0,0,0,.9.365v2.21a2.576,2.576,0,0,1-2.436-1.118,3.568,3.568,0,0,1-1.721.427A3.763,3.763,0,0,1,16.73,41.2v-8.59A3.763,3.763,0,0,1,20.5,28.84a3.593,3.593,0,0,1,2.662,1.111,3.656,3.656,0,0,1,1.093,2.656Zm-2.461-8.64a1.3,1.3,0,0,0-.4-.961,1.332,1.332,0,0,0-.968-.395,1.348,1.348,0,0,0-1.356,1.356v8.614a1.348,1.348,0,0,0,1.356,1.356,1.332,1.332,0,0,0,.968-.395,1.3,1.3,0,0,0,.4-.961Z" transform="translate(1.878 3.236)" fill="#584446"/>
        <path id="Trazado_738" data-name="Trazado 738" d="M29.077,44.93a3.731,3.731,0,0,1-3.755-3.743V29.02h2.323V41.163a1.3,1.3,0,0,0,.4.961,1.337,1.337,0,0,0,.967.395,1.348,1.348,0,0,0,1.357-1.356V29.02h2.475V41.188A3.577,3.577,0,0,1,31.74,43.85a3.672,3.672,0,0,1-2.663,1.08" transform="translate(2.842 3.256)" fill="#584446"/>
        <path id="Trazado_739" data-name="Trazado 739" d="M36.6,41.139l-.577,3.616H33.553l2.675-15.733h3.264l2.638,15.733h-2.5l-.556-3.616Zm1.246-8.514-.879,6.2h1.758Z" transform="translate(3.766 3.256)" fill="#584446"/>
        <path id="Trazado_740" data-name="Trazado 740" d="M49.528,44.754H43.06V29.021h2.374V42.393h4.094Z" transform="translate(4.833 3.256)" fill="#584446"/>
        <rect id="Rectángulo_285" data-name="Rectángulo 285" width="2.375" height="15.733" transform="translate(55.991 32.278)" fill="#584446"/>
        <path id="Trazado_741" data-name="Trazado 741" d="M56.717,31.406H54.192V29.021H61.6v2.386H59.09V44.755H56.717Z" transform="translate(6.082 3.256)" fill="#584446"/>
        <path id="Trazado_742" data-name="Trazado 742" d="M65.5,38.163l-3.177-9.155h2.612l1.758,5.651,1.746-5.651h2.624l-3.189,9.155v6.592H65.5Z" transform="translate(6.995 3.255)" fill="#584446"/>
        <path id="Trazado_743" data-name="Trazado 743" d="M30.384,14.1a1.466,1.466,0,0,1,.237.743A.454.454,0,0,0,31,14.776l.475.746a1.03,1.03,0,0,1-1.062.146,1.421,1.421,0,0,1-.487.515,1.506,1.506,0,0,1-2.082-.46L26,12.827A1.5,1.5,0,0,1,27.6,10.548a1.465,1.465,0,0,1,.941.66ZM27.694,11.72a.51.51,0,0,0-.341-.236.55.55,0,0,0-.651.414.529.529,0,0,0,.073.408l1.855,2.905a.538.538,0,0,0,.749.165.534.534,0,0,0,.241-.34.524.524,0,0,0-.071-.41Z" transform="translate(2.891 1.179)" fill="#584446"/>
        <path id="Trazado_744" data-name="Trazado 744" d="M33.884,14.065a1.492,1.492,0,0,1-1.941-.854L30.187,8.672l.866-.335,1.752,4.528a.52.52,0,0,0,.289.3.547.547,0,0,0,.72-.278.517.517,0,0,0,.008-.415L32.07,7.944l.922-.358,1.756,4.539a1.427,1.427,0,0,1-.028,1.152,1.461,1.461,0,0,1-.836.787" transform="translate(3.388 0.851)" fill="#584446"/>
        <path id="Trazado_745" data-name="Trazado 745" d="M37.476,11.435l.011,1.465-.974.163.017-6.384,1.288-.216L39.9,12.5l-.983.165-.459-1.391Zm-.069-3.441.062,2.5.694-.116Z" transform="translate(4.098 0.725)" fill="#584446"/>
        <path id="Trazado_746" data-name="Trazado 746" d="M44.11,12.6l-2.584-.081.2-6.291.948.03L42.5,11.6l1.635.051Z" transform="translate(4.661 0.698)" fill="#584446"/>
        <rect id="Rectángulo_286" data-name="Rectángulo 286" width="6.294" height="0.95" transform="translate(50.614 13.513) rotate(-80.085)" fill="#584446"/>
        <path id="Trazado_747" data-name="Trazado 747" d="M50.674,8.507l-.955-.325.307-.9,2.805.954-.307.9-.951-.324-1.721,5.055-.9-.306Z" transform="translate(5.494 0.817)" fill="#584446"/>
        <path id="Trazado_748" data-name="Trazado 748" d="M54.53,13.095l.762-3.8.9.531-.539,2.3L57.4,10.535l.9.533-2.956,2.509L54.011,15.85l-.817-.482Z" transform="translate(5.97 1.043)" fill="#584446"/>
        <path id="Trazado_749" data-name="Trazado 749" d="M54.25,56.369a1.47,1.47,0,0,1-.244-.741.452.452,0,0,0-.383.076l-.484-.741a1.033,1.033,0,0,1,1.062-.157,1.421,1.421,0,0,1,.483-.519,1.506,1.506,0,0,1,2.085.439L58.647,57.6a1.506,1.506,0,0,1-.439,2.085,1.43,1.43,0,0,1-1.134.208,1.46,1.46,0,0,1-.947-.651Zm2.712,2.358a.516.516,0,0,0,.345.232.544.544,0,0,0,.645-.42.517.517,0,0,0-.077-.407l-1.882-2.887a.539.539,0,0,0-.751-.158A.541.541,0,0,0,55,55.43a.522.522,0,0,0,.076.409Z" transform="translate(5.964 6.064)" fill="#584446"/>
        <path id="Trazado_750" data-name="Trazado 750" d="M50.567,56.44a1.493,1.493,0,0,1,1.95.834l1.8,4.522-.863.345-1.8-4.513a.518.518,0,0,0-.29-.3.535.535,0,0,0-.418,0,.539.539,0,0,0-.3.705l1.8,4.512-.92.366-1.8-4.522a1.43,1.43,0,0,1,.017-1.153,1.468,1.468,0,0,1,.829-.794" transform="translate(5.568 6.321)" fill="#584446"/>
        <path id="Trazado_751" data-name="Trazado 751" d="M46.911,59.153l-.024-1.465.973-.172L47.9,63.9l-1.287.228-2.135-6.014.982-.175.472,1.386Zm.1,3.44-.087-2.5-.692.122Z" transform="translate(4.992 6.454)" fill="#584446"/>
        <path id="Trazado_752" data-name="Trazado 752" d="M40.223,58.054l2.585.057L42.67,64.4l-.948-.021.117-5.348L40.2,59Z" transform="translate(4.512 6.515)" fill="#584446"/>
        <rect id="Rectángulo_287" data-name="Rectángulo 287" width="6.294" height="0.949" transform="matrix(0.163, -0.987, 0.987, 0.163, 40.918, 70.418)" fill="#584446"/>
        <path id="Trazado_753" data-name="Trazado 753" d="M33.713,62.124l.958.316-.3.906-2.814-.928.3-.906.954.315,1.672-5.071.9.3Z" transform="translate(3.542 6.369)" fill="#584446"/>
        <path id="Trazado_754" data-name="Trazado 754" d="M29.868,57.508l-.724,3.808-.905-.521.518-2.311L27.023,60.1l-.909-.524,2.933-2.538,1.314-2.286.824.474Z" transform="translate(2.931 6.144)" fill="#584446"/>
        <path id="Trazado_755" data-name="Trazado 755" d="M10.056,36.122a2.212,2.212,0,1,1-2.209-2.209,2.212,2.212,0,0,1,2.209,2.209" transform="translate(0.632 3.805)" fill="#584446"/>
        <path id="Trazado_756" data-name="Trazado 756" d="M73.218,36.122a2.21,2.21,0,1,0,2.21-2.209,2.212,2.212,0,0,0-2.21,2.209" transform="translate(8.218 3.805)" fill="#584446"/>
      </g>
    </g>
  </g>
</svg>
