<svg xmlns="http://www.w3.org/2000/svg" width="15.235" height="15.235" viewBox="0 0 15.235 15.235">
  <path id="Icon_ionic-md-call" data-name="Icon ionic-md-call" d="M18.889,15.08a9.934,9.934,0,0,1-3-.465.792.792,0,0,0-.846.212l-1.862,1.862A12.728,12.728,0,0,1,7.589,11.1L9.452,9.24a.882.882,0,0,0,.212-.846,9.205,9.205,0,0,1-.508-3.047A.849.849,0,0,0,8.309,4.5H5.346a.849.849,0,0,0-.846.846A14.377,14.377,0,0,0,18.889,19.735a.849.849,0,0,0,.846-.846V15.927A.849.849,0,0,0,18.889,15.08Z" transform="translate(-4.5 -4.5)" fill="#707070"/>
</svg>


