<svg xmlns="http://www.w3.org/2000/svg" width="57.656" height="18.66" viewBox="0 0 57.656 18.66">
  <g id="g4158" transform="translate(0 0)">
    <path id="polygon9" d="M438.178,128.79h-4.671l2.921-18.063h4.67Z" transform="translate(-413.193 -110.4)" fill="#00579f"/>
    <path id="path11" d="M579.189,105.817a11.51,11.51,0,0,0-4.189-.769c-4.612,0-7.86,2.46-7.88,5.976-.038,2.594,2.325,4.035,4.093,4.9,1.807.884,2.421,1.461,2.421,2.249-.018,1.21-1.46,1.768-2.8,1.768a9.3,9.3,0,0,1-4.382-.961l-.615-.289-.654,4.055a14.215,14.215,0,0,0,5.209.961c4.9,0,8.091-2.421,8.129-6.169.019-2.056-1.229-3.632-3.92-4.919-1.633-.826-2.634-1.384-2.634-2.229.019-.769.846-1.556,2.69-1.556a7.935,7.935,0,0,1,3.479.692l.422.192.635-3.9Z" transform="translate(-537.274 -105.048)" fill="#00579f"/>
    <path id="path13" d="M797.748,122.391c.385-1.038,1.865-5.054,1.865-5.054-.019.039.384-1.057.614-1.729l.326,1.556s.884,4.324,1.077,5.227Zm5.765-11.664H799.9a2.3,2.3,0,0,0-2.441,1.5l-6.937,16.564h4.9l.98-2.71h6c.134.634.557,2.71.557,2.71h4.325l-3.768-18.063Z" transform="translate(-749.625 -110.4)" fill="#00579f"/>
    <path id="path15" d="M177.367,110.727l-4.574,12.317-.5-2.5a13.826,13.826,0,0,0-6.457-7.571l4.19,15.8h4.939l7.341-18.044h-4.939Z" transform="translate(-160.954 -110.4)" fill="#00579f"/>
    <path id="path17" d="M88.757,110.727H81.243l-.077.365c5.862,1.5,9.744,5.112,11.339,9.455l-1.634-8.3a1.933,1.933,0,0,0-2.114-1.518Z" transform="translate(-81.166 -110.4)" fill="#faa61a"/>
  </g>
</svg>
