<svg id="Grupo_307" data-name="Grupo 307" xmlns="http://www.w3.org/2000/svg" width="23.002" height="23" viewBox="0 0 23.002 23">
  <path id="Trazado_653" data-name="Trazado 653" d="M-657.773,229.89h.361c.012.013.022.033.038.039.055.021.114.033.168.056a.478.478,0,0,1,.1.068.761.761,0,0,1,.206.232.676.676,0,0,1,.113.32q0,.815.005,1.631c0,.123,0,.123.121.123l2.548,0a.681.681,0,0,1,.136.011c.1.021.206.046.309.072.077.019.154.041.23.063a.522.522,0,0,1,.1.04c.1.054.2.111.295.169a1.417,1.417,0,0,1,.241.151,2.962,2.962,0,0,1,.488.515,3.489,3.489,0,0,1,.191.3c.045.084.069.18.108.268a1.656,1.656,0,0,1,.126.446,1.171,1.171,0,0,0,.043.156v16.14a.324.324,0,0,0-.038.076c-.022.111-.034.225-.061.335a1.974,1.974,0,0,1-.1.292,2.363,2.363,0,0,1-.117.212,1.8,1.8,0,0,1-.106.194,2.437,2.437,0,0,1-.212.256,3.652,3.652,0,0,1-.307.292.938.938,0,0,1-.212.145c-.123.056-.231.145-.355.2a2.659,2.659,0,0,1-.422.141,2.085,2.085,0,0,1-.342.048c-.093.008-.188,0-.281,0q-8.954,0-17.908,0a1.113,1.113,0,0,1-.43-.033,1.617,1.617,0,0,0-.254-.043c-.156-.033-.295-.107-.444-.154a.514.514,0,0,1-.11-.057c-.059-.036-.117-.075-.176-.113a2.211,2.211,0,0,1-.226-.154,2.859,2.859,0,0,1-.257-.253,2.637,2.637,0,0,1-.235-.289,2.555,2.555,0,0,1-.151-.286c-.043-.085-.089-.168-.123-.256a1.892,1.892,0,0,1-.085-.285,2.567,2.567,0,0,1-.047-.324c-.008-.1,0-.2,0-.3q0-7.708,0-15.417c0-.111,0-.221,0-.332a.357.357,0,0,1,.009-.071c.024-.111.049-.223.076-.334.01-.04.024-.079.036-.118s.034-.1.052-.157a1.114,1.114,0,0,1,.056-.148c.038-.072.082-.142.126-.211a2.275,2.275,0,0,1,.192-.289,4.143,4.143,0,0,1,.346-.34,2,2,0,0,1,.254-.192,1.777,1.777,0,0,1,.227-.114c.09-.041.181-.082.274-.117a1.442,1.442,0,0,1,.207-.057,2.166,2.166,0,0,1,.409-.074c.852-.008,1.7,0,2.555-.006.035,0,.07,0,.113-.007,0-.041,0-.074,0-.107q0-.83,0-1.66a.218.218,0,0,1,.009-.085,1.247,1.247,0,0,1,.12-.235,1.076,1.076,0,0,1,.223-.233.4.4,0,0,1,.248-.105c.006,0,.014-.024.021-.037h.375c.009.013.016.034.028.039.053.02.109.031.161.054a.5.5,0,0,1,.112.072.73.73,0,0,1,.206.232.7.7,0,0,1,.113.312q0,.826,0,1.652c0,.033,0,.066,0,.1.038,0,.069.006.1.006h9.67c.1,0,.1,0,.1-.1,0-.435,0-.871,0-1.306a1.311,1.311,0,0,1,.046-.516.876.876,0,0,1,.211-.325.633.633,0,0,1,.352-.185C-657.787,229.926-657.78,229.9-657.773,229.89Zm-5.565,9.849h-9.694c-.16,0-.16,0-.16.162q0,5.2,0,10.393a.937.937,0,0,0,.092.511,1.043,1.043,0,0,0,.134.185.675.675,0,0,0,.224.161.586.586,0,0,0,.239.077c.1,0,.207,0,.31,0h17.728c.087,0,.174-.009.26,0a.592.592,0,0,0,.326-.105.779.779,0,0,0,.219-.207.631.631,0,0,0,.161-.412c0-.053,0-.106,0-.159q0-5.24,0-10.48c0-.128,0-.128-.128-.128Zm-9.843-1.631h.084q9.755,0,19.511,0c.075,0,.094-.023.093-.093q0-1.588,0-3.176a.861.861,0,0,0-.144-.5.726.726,0,0,0-.332-.273,1.041,1.041,0,0,0-.379-.077c-.772-.007-1.545,0-2.317,0-.093,0-.113.022-.113.115,0,.493,0,.986,0,1.48a.821.821,0,0,1-.187.576.9.9,0,0,1-.3.236.831.831,0,0,1-.42.048.665.665,0,0,1-.238-.053.905.905,0,0,1-.273-.208.754.754,0,0,1-.2-.463c0-.065,0-.13,0-.195,0-.479,0-.958,0-1.436a.086.086,0,0,0-.093-.1c-.024,0-.048,0-.072,0h-9.6c-.09,0-.109.022-.109.11,0,.5,0,1,0,1.494a.809.809,0,0,1-.033.3.961.961,0,0,1-.151.272.706.706,0,0,1-.439.273.839.839,0,0,1-.562-.073,1.033,1.033,0,0,1-.24-.19.692.692,0,0,1-.2-.493c0-.52,0-1.039,0-1.559,0-.12-.042-.133-.139-.133h-2.137a1.1,1.1,0,0,0-.615.125,1.164,1.164,0,0,0-.214.184.68.68,0,0,0-.1.16.647.647,0,0,0-.072.173,1.4,1.4,0,0,0-.016.252q0,1.552,0,3.1C-673.192,238.025-673.185,238.063-673.181,238.109Z" transform="translate(674.841 -229.89)" fill="#cc0935"/>
  <path id="Trazado_654" data-name="Trazado 654" d="M-509.208,531.71c-.3,0-.592.005-.887,0a.715.715,0,0,1-.236-.071.785.785,0,0,1-.189-.1.849.849,0,0,1-.265-.351.765.765,0,0,1-.051-.291.756.756,0,0,1,.1-.4.867.867,0,0,1,.244-.277.688.688,0,0,1,.309-.124,15.65,15.65,0,0,1,1.809-.029.832.832,0,0,1,.309.07.8.8,0,0,1,.364.29.629.629,0,0,1,.121.3c.005.05.022.1.024.148a.505.505,0,0,1-.02.117,1.436,1.436,0,0,1-.056.247.589.589,0,0,1-.193.256,1.784,1.784,0,0,1-.261.17.523.523,0,0,1-.216.053C-508.607,531.713-508.908,531.71-509.208,531.71Z" transform="translate(520.701 -511.993)" fill="#cc0935"/>
  <path id="Trazado_655" data-name="Trazado 655" d="M-413.685,531.784c-.274,0-.549,0-.823,0a.889.889,0,0,1-.307-.077.76.76,0,0,1-.282-.194.516.516,0,0,1-.154-.256,1.693,1.693,0,0,1-.065-.288.887.887,0,0,1,.054-.282.764.764,0,0,1,.107-.222.739.739,0,0,1,.24-.213,1.424,1.424,0,0,1,.289-.1,1.212,1.212,0,0,1,.361-.028c.457,0,.914-.005,1.371,0a1.092,1.092,0,0,1,.345.074.7.7,0,0,1,.366.292,1.03,1.03,0,0,1,.12.3.8.8,0,0,1,.008.3.714.714,0,0,1-.249.464,1.216,1.216,0,0,1-.272.174.576.576,0,0,1-.23.051c-.293.006-.587,0-.881,0Z" transform="translate(430.926 -512.066)" fill="#cc0935"/>
  <path id="Trazado_656" data-name="Trazado 656" d="M-604.977,531.758c-.3,0-.6.008-.895,0a.75.75,0,0,1-.328-.112.886.886,0,0,1-.238-.2.642.642,0,0,1-.113-.2,2.066,2.066,0,0,1-.072-.3c0-.023.024-.052.022-.077a.567.567,0,0,1,.057-.279.873.873,0,0,1,.145-.213.974.974,0,0,1,.335-.224l.007,0a3.164,3.164,0,0,1,.359-.043c.445-.005.89,0,1.335-.005a1.771,1.771,0,0,1,.459.053.68.68,0,0,1,.363.238.925.925,0,0,1,.15.256c.027.07.016.14.038.2a.561.561,0,0,1-.014.293.631.631,0,0,1-.234.388,1.573,1.573,0,0,1-.265.17.525.525,0,0,1-.216.054C-604.38,531.761-604.679,531.758-604.977,531.758Z" transform="translate(610.726 -512.041)" fill="#cc0935"/>
  <path id="Trazado_657" data-name="Trazado 657" d="M-413.671,477.311c-.253,0-.505,0-.758,0a.91.91,0,0,1-.626-.227.568.568,0,0,1-.194-.3,1.893,1.893,0,0,1-.064-.282.912.912,0,0,1,.051-.283.715.715,0,0,1,.1-.208.674.674,0,0,1,.255-.231.875.875,0,0,1,.376-.119q.866,0,1.732,0a.488.488,0,0,1,.256.076,1.731,1.731,0,0,1,.188.1.981.981,0,0,1,.21.244.94.94,0,0,1,.107.4.538.538,0,0,1-.032.239,1.014,1.014,0,0,1-.13.254.729.729,0,0,1-.331.262,1.309,1.309,0,0,1-.509.083C-413.248,477.309-413.46,477.311-413.671,477.311Z" transform="translate(430.923 -460.874)" fill="#cc0935"/>
  <path id="Trazado_658" data-name="Trazado 658" d="M-509.252,475.638h.757a.842.842,0,0,1,.387.078.874.874,0,0,1,.266.18.6.6,0,0,1,.166.27,2.029,2.029,0,0,1,.067.3.6.6,0,0,1-.037.239.915.915,0,0,1-.129.251.774.774,0,0,1-.33.259,1.325,1.325,0,0,1-.508.083c-.474,0-.947,0-1.421,0a.864.864,0,0,1-.5-.147.679.679,0,0,1-.3-.394.9.9,0,0,1-.056-.28.89.89,0,0,1,.049-.292,1.028,1.028,0,0,1,.192-.3.92.92,0,0,1,.242-.161.993.993,0,0,1,.482-.08Z" transform="translate(520.752 -460.856)" fill="#cc0935"/>
  <path id="Trazado_659" data-name="Trazado 659" d="M-605.013,475.656c.293,0,.587,0,.88,0a.5.5,0,0,1,.264.077,1.87,1.87,0,0,1,.178.1.8.8,0,0,1,.214.25,1,1,0,0,1,.092.328.809.809,0,0,1-.018.293.7.7,0,0,1-.185.337.9.9,0,0,1-.341.22.88.88,0,0,1-.288.048c-.529,0-1.059.011-1.588,0a.813.813,0,0,1-.647-.3.59.59,0,0,1-.139-.247c-.02-.092-.052-.183-.067-.276-.006-.038.023-.08.026-.121a.745.745,0,0,1,.256-.5,1.186,1.186,0,0,1,.261-.161.466.466,0,0,1,.22-.048C-605.6,475.653-605.306,475.656-605.013,475.656Z" transform="translate(610.759 -460.872)" fill="#cc0935"/>
  <path id="Trazado_660" data-name="Trazado 660" d="M-413.723,421.036c.3,0,.607-.009.909.005a1,1,0,0,1,.317.1.681.681,0,0,1,.279.256.7.7,0,0,1,.108.237.925.925,0,0,1,0,.424.888.888,0,0,1-.156.31.888.888,0,0,1-.274.22.369.369,0,0,1-.139.05,2.6,2.6,0,0,1-.362.041c-.462,0-.924.009-1.386,0a1.391,1.391,0,0,1-.459-.086.722.722,0,0,1-.37-.337.936.936,0,0,1-.108-.391.846.846,0,0,1,.064-.3.616.616,0,0,1,.1-.194.82.82,0,0,1,.3-.252,1.062,1.062,0,0,1,.477-.089c.233,0,.467,0,.7,0Z" transform="translate(430.97 -409.534)" fill="#cc0935"/>
  <path id="Trazado_661" data-name="Trazado 661" d="M-604.782,421c.3,0,.6,0,.895,0a.731.731,0,0,1,.33.108.767.767,0,0,1,.273.251.572.572,0,0,1,.123.306.926.926,0,0,0,.028.144.083.083,0,0,1,0,.034.48.48,0,0,0-.024.1.677.677,0,0,1-.157.384.85.85,0,0,1-.277.225.4.4,0,0,1-.139.051,2.354,2.354,0,0,1-.348.041c-.481,0-.962.008-1.443,0a1.206,1.206,0,0,1-.429-.089.7.7,0,0,1-.361-.337,1.148,1.148,0,0,1-.094-.307,1.391,1.391,0,0,1,.015-.309.387.387,0,0,1,.078-.167,1.077,1.077,0,0,1,.134-.193.762.762,0,0,1,.332-.2,3.592,3.592,0,0,1,.857-.044c.069,0,.139,0,.209,0Z" transform="translate(610.53 -409.5)" fill="#cc0935"/>
  <path id="Trazado_662" data-name="Trazado 662" d="M-509.2,420.982c.3,0,.592,0,.887,0a.775.775,0,0,1,.339.109.786.786,0,0,1,.282.259.972.972,0,0,1,.106.257.522.522,0,0,1,.029.183,1.028,1.028,0,0,1-.045.265,1.06,1.06,0,0,1-.121.236.674.674,0,0,1-.241.212,1.2,1.2,0,0,1-.617.127c-.4,0-.8,0-1.2,0a2.223,2.223,0,0,1-.456-.041.646.646,0,0,1-.4-.252c-.065-.093-.118-.194-.175-.292a.143.143,0,0,1-.009-.049,1.119,1.119,0,0,1,0-.389.633.633,0,0,1,.161-.317,1.142,1.142,0,0,1,.155-.159.95.95,0,0,1,.22-.1,2.774,2.774,0,0,1,.8-.048c.091-.005.183,0,.274,0Z" transform="translate(520.697 -409.481)" fill="#cc0935"/>
</svg>
