<svg xmlns="http://www.w3.org/2000/svg" width="27.2" height="26.1" viewBox="0 0 27.2 26.1">
  <g id="Grupo_97" data-name="Grupo 97" transform="translate(-8.5 -12.5)">
    <g id="Icon_feather-shopping-cart" data-name="Icon feather-shopping-cart" transform="translate(10 14)">
      <path id="Trazado_624" data-name="Trazado 624" d="M14.2,31.1A1.1,1.1,0,1,1,13.1,30,1.1,1.1,0,0,1,14.2,31.1Z" transform="translate(-4.3 -9.1)" fill="none" stroke="#000" stroke-linecap="round" stroke-linejoin="round" stroke-width="3"/>
      <path id="Trazado_625" data-name="Trazado 625" d="M30.7,31.1A1.1,1.1,0,1,1,29.6,30,1.1,1.1,0,0,1,30.7,31.1Z" transform="translate(-8.7 -9.1)" fill="none" stroke="#000" stroke-linecap="round" stroke-linejoin="round" stroke-width="3"/>
      <path id="Trazado_626" data-name="Trazado 626" d="M1.5,1.5H5.9L8.848,16.229A2.2,2.2,0,0,0,11.048,18H21.74a2.2,2.2,0,0,0,2.2-1.771L25.7,7H7" transform="translate(-1.5 -1.5)" fill="none" stroke="#000" stroke-linecap="round" stroke-linejoin="round" stroke-width="3"/>
    </g>
  </g>
</svg>
