<svg id="Icon_feather-clock" data-name="Icon feather-clock" xmlns="http://www.w3.org/2000/svg" width="17.126" height="17.125" viewBox="0 0 17.126 17.125">
  <path id="Trazado_632" data-name="Trazado 632" d="M298.873,430.5a8.563,8.563,0,1,1,8.636-8.562A8.564,8.564,0,0,1,298.873,430.5Zm-.006-15.738a7.176,7.176,0,1,0,7.255,7.176A7.176,7.176,0,0,0,298.867,414.761Z" transform="translate(-290.383 -413.374)" fill="#9d9d9d"/>
  <path id="Trazado_633" data-name="Trazado 633" d="M300.121,423.835a.813.813,0,0,1-.363-.085l-2.694-1.334a.821.821,0,0,1-.456-.738v-4a.821.821,0,1,1,1.642,0h0v3.493l2.237,1.107a.822.822,0,0,1-.365,1.558Z" transform="translate(-289.14 -412.679)" fill="#9d9d9d"/>
</svg>
