<svg xmlns="http://www.w3.org/2000/svg" width="35" height="35" viewBox="0 0 35 35">
  <g id="Grupo_514" data-name="Grupo 514" transform="translate(-108 -149)">
    <g id="Grupo_513" data-name="Grupo 513" transform="translate(115.081 159.76)">
      <path id="Trazado_668" data-name="Trazado 668" d="M-136.209,302.161a2.486,2.486,0,0,1-.791,1.257q-5.689,5.677-11.367,11.365a1.641,1.641,0,0,1-1.805.489,1.945,1.945,0,0,1-.7-.443q-2.906-2.878-5.789-5.78a1.653,1.653,0,0,1,.133-2.562,1.676,1.676,0,0,1,2.245.234q2.228,2.223,4.45,4.451a2.046,2.046,0,0,1,.175.251,2.454,2.454,0,0,1,.177-.239q5.167-5.17,10.335-10.338a1.657,1.657,0,0,1,1.771-.493,1.618,1.618,0,0,1,1.123,1.222c.012.045.028.09.042.134Z" transform="translate(157.204 -300.269)" fill="#609d56"/>
    </g>
    <g id="Elipse_23" data-name="Elipse 23" transform="translate(108 149)" fill="none" stroke="#609d56" stroke-width="3">
      <circle cx="17.5" cy="17.5" r="17.5" stroke="none"/>
      <circle cx="17.5" cy="17.5" r="16" fill="none"/>
    </g>
  </g>
</svg>
