<svg xmlns="http://www.w3.org/2000/svg" width="14" height="14" viewBox="0 0 14 14">
  <path id="Trazado_685" data-name="Trazado 685" d="M17.374,2.99A.633.633,0,0,0,17.306,3H13.735a.609.609,0,0,0-.017,1.217h2.2L9.654,10.476a.608.608,0,1,0,.843.878l.018-.018,6.263-6.263V7.255a.609.609,0,1,0,1.217.017V3.682A.609.609,0,0,0,17.475,3,.7.7,0,0,0,17.374,2.99ZM5.217,5.43A1.226,1.226,0,0,0,4,6.647v9.127A1.226,1.226,0,0,0,5.217,16.99h9.127a1.226,1.226,0,0,0,1.217-1.217V8.12L14.344,9.337v6.436H5.217V6.647h6.436L12.87,5.43H5.217Z" transform="translate(-4 -2.99)" fill="#9d9d9d"/>
</svg>
