<svg xmlns="http://www.w3.org/2000/svg" width="27.832" height="25.445" viewBox="0 0 27.832 25.445">
  <g id="Grupo_326" data-name="Grupo 326" transform="translate(-106 -246.021)">
    <path id="Trazado_663" data-name="Trazado 663" d="M106,248.582c.04-.157.075-.315.12-.47a2.9,2.9,0,0,1,2.723-2.08q5.082-.018,10.163,0a2.9,2.9,0,0,1,2.838,3.024c.01,1.639,0,3.279,0,4.919v.355h.376q4.307,0,8.614,0a2.88,2.88,0,0,1,2.9,2.228,3.355,3.355,0,0,1,.086.779q.009,3.6,0,7.2a2.921,2.921,0,0,1-3,3.008c-.361,0-.723,0-1.1,0l-.678,2.406c-.083.3-.165.592-.251.888a.818.818,0,0,1-1.532.159c-.578-1.076-1.159-2.15-1.727-3.231a.361.361,0,0,0-.375-.226c-1.368.008-2.736,0-4.1,0a2.924,2.924,0,0,1-3.075-3.07c-.005-1.63,0-3.261,0-4.891v-.344h-.331c-.969,0-1.939.011-2.908-.007a.474.474,0,0,0-.493.306c-.536,1.026-1.088,2.044-1.636,3.065a.828.828,0,0,1-.9.547.845.845,0,0,1-.714-.718c-.263-.959-.548-1.912-.8-2.875-.069-.265-.185-.326-.441-.325a6.525,6.525,0,0,1-1.486-.076,2.829,2.829,0,0,1-2.215-2.246c-.019-.077-.039-.155-.058-.232Zm21.768,19.9c.192-.687.358-1.3.533-1.905a.818.818,0,0,1,.876-.658c.534,0,1.068,0,1.6,0A1.3,1.3,0,0,0,132.2,264.5q0-3.559,0-7.117a1.287,1.287,0,0,0-1.408-1.421q-4.89,0-9.779,0a1.275,1.275,0,0,0-1.4,1.378q-.008,3.6,0,7.2a1.29,1.29,0,0,0,1.4,1.379c1.413,0,2.825.006,4.238,0,1.14-.006,1.136-.025,1.672,1C127.191,267.419,127.464,267.916,127.768,268.482Zm-15.71-8.316c.071-.121.118-.2.16-.273.308-.573.625-1.143.92-1.723a.946.946,0,0,1,.936-.561c1.2.01,2.39,0,3.586,0h.307c.007-.1.015-.184.016-.263a2.926,2.926,0,0,1,2.068-2.9.3.3,0,0,0,.157-.225c.008-1.757.016-3.513,0-5.27a1.255,1.255,0,0,0-1.316-1.293q-4.971,0-9.942,0a1.273,1.273,0,0,0-1.319,1.321q-.006,3.653,0,7.307a1.272,1.272,0,0,0,1.313,1.325c.552.006,1.1,0,1.657,0a.852.852,0,0,1,.941.72C111.71,258.923,111.876,259.515,112.058,260.165Z" transform="translate(0 0)" fill="#9d9d9d"/>
    <path id="Trazado_664" data-name="Trazado 664" d="M334.943,402.674c-.136.323-.229.587-.355.834a4.345,4.345,0,0,1-1.74,1.744c-.433.256-.546.6-.317.965s.586.42,1.009.151c.206-.131.41-.267.6-.415a5.29,5.29,0,0,0,2.145-3.637c.076-.606-.168-.893-.774-.9-.254,0-.507,0-.76,0-.525,0-1.05-.006-1.575,0a.625.625,0,0,0-.69.582.607.607,0,0,0,.65.667C333.716,402.68,334.293,402.674,334.943,402.674Zm3.265.818c0-.678,0-1.321,0-1.963a.652.652,0,1,0-1.3-.013q-.006,2.961,0,5.922a.652.652,0,1,0,1.3,0c0-.788,0-1.576,0-2.364v-.317c.509-.008,1.115.072,1.12-.632S338.715,403.515,338.208,403.492Z" transform="translate(-209.974 -143.584)" fill="#9d9d9d"/>
    <path id="Trazado_665" data-name="Trazado 665" d="M334.943,409.954c-.65,0-1.227.007-1.8,0a.607.607,0,0,1-.65-.667.625.625,0,0,1,.69-.582c.525-.008,1.05,0,1.575,0,.253,0,.507,0,.76,0,.606,0,.85.29.774.9a5.29,5.29,0,0,1-2.145,3.637c-.193.149-.4.284-.6.415-.422.269-.782.212-1.009-.151s-.116-.71.317-.965a4.345,4.345,0,0,0,1.74-1.744C334.715,410.542,334.807,410.278,334.943,409.954Z" transform="translate(-209.974 -150.865)" fill="#9d9d9d"/>
    <path id="Trazado_666" data-name="Trazado 666" d="M395.5,403.492c.507.023,1.124-.078,1.12.638s-.611.624-1.12.632v.317c0,.788,0,1.576,0,2.364a.652.652,0,1,1-1.3,0q-.005-2.961,0-5.922a.652.652,0,1,1,1.3.013C395.506,402.171,395.5,402.814,395.5,403.492Z" transform="translate(-267.269 -143.584)" fill="#9d9d9d"/>
    <path id="Trazado_667" data-name="Trazado 667" d="M180.764,297.118a.645.645,0,0,1-.7-.48c-.134-.355-.27-.71-.387-1.071a.255.255,0,0,0-.295-.2q-.733.014-1.467,0a.242.242,0,0,0-.273.192c-.13.376-.265.75-.413,1.119a.8.8,0,0,1-1.21.3.645.645,0,0,1-.157-.788q.649-1.726,1.3-3.45c.24-.634.478-1.269.72-1.9a.671.671,0,0,1,.767-.5.678.678,0,0,1,.764.514q1.011,2.662,2.018,5.325A.641.641,0,0,1,180.764,297.118Zm-1.683-3.16-.423-1.2-.423,1.2Z" transform="translate(-64.728 -41.09)" fill="#9d9d9d"/>
  </g>
</svg>
