<svg xmlns="http://www.w3.org/2000/svg" width="28" height="28" viewBox="0 0 28 28">
  <g id="Icon_feather-instagram" data-name="Icon feather-instagram" transform="translate(1.5 1.5)">
    <path id="Trazado_641" data-name="Trazado 641" d="M9.25,3h12.5A6.25,6.25,0,0,1,28,9.25v12.5A6.25,6.25,0,0,1,21.75,28H9.25A6.25,6.25,0,0,1,3,21.75V9.25A6.25,6.25,0,0,1,9.25,3Z" transform="translate(-3 -3)" fill="none" stroke="#fff" stroke-linecap="round" stroke-linejoin="round" stroke-width="3"/>
    <path id="Trazado_642" data-name="Trazado 642" d="M22.011,16.2A5,5,0,1,1,17.8,11.989,5,5,0,0,1,22.011,16.2Z" transform="translate(-4.511 -4.489)" fill="none" stroke="#fff" stroke-linecap="round" stroke-linejoin="round" stroke-width="3"/>
    <path id="Trazado_643" data-name="Trazado 643" d="M26.25,9.75h0" transform="translate(-6.875 -4.125)" fill="none" stroke="#fff" stroke-linecap="round" stroke-linejoin="round" stroke-width="3"/>
  </g>
</svg>
