<svg xmlns="http://www.w3.org/2000/svg" width="38.436" height="29.904" viewBox="0 0 38.436 29.904">
  <g id="logo-mastercard" transform="translate(0 0)">
    <g id="Grupo_460" data-name="Grupo 460" transform="translate(0 0)">
      <g id="Grupo_456" data-name="Grupo 456" transform="translate(1.956 25.313)">
        <path id="Trazado_697" data-name="Trazado 697" d="M-149.984-17.588v.078h.072a.076.076,0,0,0,.039-.01.034.034,0,0,0,.014-.029.033.033,0,0,0-.014-.029.069.069,0,0,0-.039-.01Zm.073-.054a.133.133,0,0,1,.086.025.083.083,0,0,1,.03.068.078.078,0,0,1-.024.06.118.118,0,0,1-.069.029l.1.11h-.074l-.088-.109h-.029v.109h-.062v-.291Zm-.019.391a.23.23,0,0,0,.094-.02.248.248,0,0,0,.077-.052.243.243,0,0,0,.052-.078.249.249,0,0,0,.019-.1.249.249,0,0,0-.019-.1.251.251,0,0,0-.052-.078.248.248,0,0,0-.077-.052.242.242,0,0,0-.094-.018.252.252,0,0,0-.1.018.246.246,0,0,0-.079.052.237.237,0,0,0-.051.078.236.236,0,0,0-.019.1.236.236,0,0,0,.019.1.229.229,0,0,0,.051.078.246.246,0,0,0,.079.052.239.239,0,0,0,.1.02m0-.558a.314.314,0,0,1,.125.025.316.316,0,0,1,.1.067.307.307,0,0,1,.068.1.3.3,0,0,1,.025.122.3.3,0,0,1-.025.122.324.324,0,0,1-.068.1.343.343,0,0,1-.1.067.314.314,0,0,1-.125.025.319.319,0,0,1-.126-.025.328.328,0,0,1-.1-.067.324.324,0,0,1-.068-.1.3.3,0,0,1-.025-.122.3.3,0,0,1,.025-.122.307.307,0,0,1,.068-.1.3.3,0,0,1,.1-.067.319.319,0,0,1,.126-.025m-29.432-1.12a.947.947,0,0,1,.957-1.01.946.946,0,0,1,.95,1.01.946.946,0,0,1-.95,1.01.947.947,0,0,1-.957-1.01m2.554,0v-1.577h-.686v.383a1.2,1.2,0,0,0-1-.462,1.581,1.581,0,0,0-1.578,1.657,1.581,1.581,0,0,0,1.578,1.657,1.2,1.2,0,0,0,1-.462v.383h.686Zm23.179,0a.947.947,0,0,1,.957-1.01.945.945,0,0,1,.95,1.01.945.945,0,0,1-.95,1.01.947.947,0,0,1-.957-1.01m2.555,0v-2.844h-.687v1.65a1.2,1.2,0,0,0-1-.462,1.581,1.581,0,0,0-1.578,1.657,1.581,1.581,0,0,0,1.578,1.657,1.2,1.2,0,0,0,1-.462v.383h.687Zm-17.22-1.042a.784.784,0,0,1,.8.765h-1.637a.812.812,0,0,1,.839-.765m.014-.614a1.542,1.542,0,0,0-1.571,1.657,1.556,1.556,0,0,0,1.617,1.657,1.917,1.917,0,0,0,1.293-.442l-.336-.508a1.509,1.509,0,0,1-.918.33.876.876,0,0,1-.944-.773h2.343c.007-.085.014-.171.014-.264a1.513,1.513,0,0,0-1.5-1.657M-160-18.93a.947.947,0,0,1,.957-1.01.946.946,0,0,1,.95,1.01.946.946,0,0,1-.95,1.01A.947.947,0,0,1-160-18.93m2.554,0v-1.577h-.686v.383a1.2,1.2,0,0,0-1-.462A1.581,1.581,0,0,0-160.7-18.93a1.581,1.581,0,0,0,1.578,1.657,1.2,1.2,0,0,0,1-.462v.383h.686Zm-6.428,0a1.594,1.594,0,0,0,1.683,1.657,1.652,1.652,0,0,0,1.135-.376l-.329-.554a1.386,1.386,0,0,1-.826.284.942.942,0,0,1-.95-1.01.942.942,0,0,1,.95-1.01,1.386,1.386,0,0,1,.826.284l.329-.554a1.652,1.652,0,0,0-1.135-.376,1.594,1.594,0,0,0-1.683,1.657m8.844-1.657a.931.931,0,0,0-.832.462v-.383h-.68v3.155h.687v-1.768c0-.522.224-.812.673-.812a1.112,1.112,0,0,1,.429.079l.212-.647a1.461,1.461,0,0,0-.489-.086m-18.388.33a2.359,2.359,0,0,0-1.286-.33c-.8,0-1.314.383-1.314,1.01,0,.514.383.832,1.089.931l.324.046c.376.053.554.152.554.33,0,.244-.251.383-.719.383a1.68,1.68,0,0,1-1.049-.33l-.323.534a2.276,2.276,0,0,0,1.366.409c.911,0,1.439-.429,1.439-1.03,0-.554-.415-.845-1.1-.944l-.323-.047c-.3-.039-.535-.1-.535-.31,0-.231.224-.369.6-.369a2.035,2.035,0,0,1,.984.27Zm8.851-.33a.929.929,0,0,0-.831.462v-.383h-.68v3.155h.686v-1.768c0-.522.224-.812.673-.812a1.112,1.112,0,0,1,.429.079l.212-.647a1.461,1.461,0,0,0-.489-.086m-5.854.079h-1.122v-.957h-.693v.957h-.64v.627h.64v1.439c0,.732.284,1.168,1.1,1.168a1.61,1.61,0,0,0,.858-.244l-.2-.588a1.27,1.27,0,0,1-.607.178c-.343,0-.455-.212-.455-.528V-19.88h1.122Zm-10.256,3.155v-1.98a1.175,1.175,0,0,0-1.241-1.254,1.221,1.221,0,0,0-1.109.561,1.158,1.158,0,0,0-1.042-.561,1.043,1.043,0,0,0-.924.468v-.389h-.687v3.155h.693V-19.1a.738.738,0,0,1,.773-.839c.456,0,.686.3.686.832v1.756h.693V-19.1a.744.744,0,0,1,.772-.839c.468,0,.693.3.693.832v1.756Z" transform="translate(185.679 21.774)" fill="#231f20"/>
      </g>
      <g id="Grupo_457" data-name="Grupo 457" transform="translate(37.072 18.782)">
        <path id="Trazado_698" data-name="Trazado 698" d="M-4.206-1.936V-2.4h-.12l-.139.317L-4.6-2.4h-.121v.461h.085v-.347l.13.3h.088l.13-.3v.348Zm-.762,0v-.382h.154V-2.4h-.393v.078h.154v.382Z" transform="translate(5.207 2.397)" fill="#f79410"/>
      </g>
      <path id="Trazado_699" data-name="Trazado 699" d="M3353.4,2166.255H3343v-18.683h10.4Z" transform="translate(-3328.985 -2145.03)" fill="#ff5f00"/>
      <g id="Grupo_458" data-name="Grupo 458" transform="translate(0 0)">
        <path id="Trazado_700" data-name="Trazado 700" d="M-61.707-49.927a11.862,11.862,0,0,1,4.538-9.342,11.83,11.83,0,0,0-7.343-2.541A11.881,11.881,0,0,0-76.392-49.927,11.881,11.881,0,0,0-64.511-38.045a11.83,11.83,0,0,0,7.343-2.541,11.862,11.862,0,0,1-4.538-9.342" transform="translate(76.392 61.809)" fill="#eb001b"/>
      </g>
      <g id="Grupo_459" data-name="Grupo 459" transform="translate(19.212 0)">
        <path id="Trazado_701" data-name="Trazado 701" d="M-80.777-49.927A11.881,11.881,0,0,1-92.658-38.045,11.834,11.834,0,0,1-100-40.585a11.861,11.861,0,0,0,4.539-9.342A11.861,11.861,0,0,0-100-59.269a11.834,11.834,0,0,1,7.343-2.541A11.881,11.881,0,0,1-80.777-49.927" transform="translate(100.001 61.809)" fill="#f79e1b"/>
      </g>
    </g>
  </g>
</svg>
