<svg xmlns="http://www.w3.org/2000/svg" width="21.237" height="28.498" viewBox="0 0 21.237 28.498">
  <g id="Grupo_452" data-name="Grupo 452" transform="translate(-55.834 -101.805)">
    <path id="Trazado_688" data-name="Trazado 688" d="M58.881,112.9c0-.127,0-.234,0-.341,0-1.108-.021-2.216.011-3.323A7.569,7.569,0,0,1,73.235,106a7.842,7.842,0,0,1,.8,3.549c-.007,1,0,2,0,3v.329c.288.056.561.091.823.164a3.034,3.034,0,0,1,2.191,2.763c.032,1.245.015,2.492.016,3.738q0,3.783,0,7.566a3.07,3.07,0,0,1-2.406,3.111,3.487,3.487,0,0,1-.764.081q-7.431.007-14.862,0a3.083,3.083,0,0,1-3.133-2.565,4.394,4.394,0,0,1-.044-.768c0-3.551.045-7.1-.021-10.651A3.227,3.227,0,0,1,58.881,112.9Zm7.586,1.684c-2.442,0-4.885.023-7.327-.011a1.523,1.523,0,0,0-1.63,1.633q.044,5.4,0,10.8a1.519,1.519,0,0,0,1.629,1.637c4.885-.015,9.769-.006,14.654-.007a1.435,1.435,0,0,0,1.6-1.614q0-5.415,0-10.83a1.426,1.426,0,0,0-1.6-1.608Zm5.9-1.682c0-.251,0-.476,0-.7-.007-1.127.073-2.262-.037-3.379a5.9,5.9,0,0,0-11.555-1,20.247,20.247,0,0,0-.192,5.082h1.592c0-.132,0-.248,0-.363.008-1.146-.026-2.3.034-3.439a4.259,4.259,0,0,1,8.5-.049c.07,1.163.03,2.332.039,3.5,0,.114,0,.229,0,.357Zm-3.324,0a.92.92,0,0,0,.025-.138c0-1.106.011-2.213,0-3.319a2.548,2.548,0,0,0-1.048-2.122,2.475,2.475,0,0,0-2.576-.313,2.382,2.382,0,0,0-1.554,2.133c-.063,1.182-.03,2.369-.036,3.554a1.334,1.334,0,0,0,.031.2Z" transform="translate(0)" fill="#584446"/>
    <path id="Trazado_690" data-name="Trazado 690" d="M169,460.037l2.835-3.07c1.066-1.154,2.126-2.314,3.2-3.458a1.331,1.331,0,0,1,.585-.363.762.762,0,0,1,.851.4.841.841,0,0,1-.142,1.011c-.7.767-1.406,1.527-2.109,2.289q-2.2,2.386-4.4,4.771c-.53.574-.967.584-1.507.035q-1.476-1.5-2.951-3a.85.85,0,0,1-.239-.9.789.789,0,0,1,.636-.558.865.865,0,0,1,.821.306q1.109,1.134,2.22,2.266A2.608,2.608,0,0,1,169,460.037Z" transform="translate(-104.373 -335.641)" fill="#584446"/>
  </g>
</svg>
