<svg id="Grupo_119" data-name="Grupo 119" xmlns="http://www.w3.org/2000/svg" xmlns:xlink="http://www.w3.org/1999/xlink" width="41.509" height="41.422" viewBox="0 0 41.509 41.422">
  <defs>
    <clipPath id="clip-path">
      <rect id="Rectángulo_55" data-name="Rectángulo 55" width="41.509" height="41.422" fill="#fff"/>
    </clipPath>
  </defs>
  <g id="Grupo_58" data-name="Grupo 58" transform="translate(0)" clip-path="url(#clip-path)">
    <path id="Trazado_534" data-name="Trazado 534" d="M1.218,95.99H8.49l14.122,2.431h1.011a1.092,1.092,0,0,0,.273-.146.038.038,0,0,0,.011-.007L41.011,85.7a1.214,1.214,0,0,0,.272-1.684,6.194,6.194,0,0,0-8.39-1.555L28.557,85.32a3.642,3.642,0,0,0-2.939-1.491H21.672c-.672,0-.947-.482-1.374-.8a8.529,8.529,0,0,0-11.248,0l-.915.8H1.218A1.22,1.22,0,0,0,0,85.047v9.729A1.217,1.217,0,0,0,1.218,95.99M2.43,86.262H8.593a1.212,1.212,0,0,0,.8-.3l1.26-1.106a6.093,6.093,0,0,1,8.034,0,4.28,4.28,0,0,0,2.98,1.41h3.946a1.217,1.217,0,0,1,0,2.434H15.891a1.216,1.216,0,1,0,0,2.432h9.727a3.651,3.651,0,0,0,3.634-3.354l4.977-3.281a3.764,3.764,0,0,1,4.214.077L22.881,96C7.956,93.436,8.791,93.56,8.593,93.56H2.43Z" transform="translate(0 -56.998)" fill="#fff" fill-rule="evenodd"/>
    <path id="Trazado_535" data-name="Trazado 535" d="M55.082,11.023A10.945,10.945,0,1,0,44.139,21.97,11,11,0,0,0,55.082,11.023m-2.432,0a8.524,8.524,0,0,1-7.3,8.424v-2.2a3.647,3.647,0,0,0-1.226-7.082,1.217,1.217,0,1,1,1.216-1.216,1.216,1.216,0,0,0,2.432,0,3.651,3.651,0,0,0-2.422-3.436v-3a8.583,8.583,0,0,1,7.3,8.506m-17.025,0a8.584,8.584,0,0,1,7.3-8.506V5.5a3.648,3.648,0,0,0,1.2,7.093,1.215,1.215,0,1,1-1.216,1.214,1.217,1.217,0,0,0-2.434,0,3.655,3.655,0,0,0,2.448,3.443v2.193a8.524,8.524,0,0,1-7.3-8.424" transform="translate(-23.383)" fill="#fff" fill-rule="evenodd"/>
  </g>
</svg>
