<svg xmlns="http://www.w3.org/2000/svg" width="15.936" height="18.874" viewBox="0 0 15.936 18.874">
  <g id="Grupo_427" data-name="Grupo 427" transform="translate(0)">
    <path id="Trazado_673" data-name="Trazado 673" d="M-446.336,220.681a12.37,12.37,0,0,1-3.541-2.148,12.262,12.262,0,0,1-4.018-6.831,12.382,12.382,0,0,1-.261-2.635c0-1.143,0-2.286,0-3.43a.763.763,0,0,1,.549-.82q3.527-1.465,7.053-2.931a.893.893,0,0,1,.729,0q3.525,1.469,7.054,2.93a.8.8,0,0,1,.55.823c-.007,1.168,0,2.336,0,3.5a12.348,12.348,0,0,1-7.6,11.449l-.219.092Zm-6.344-12.239a13.1,13.1,0,0,0,.142,2.478,10.784,10.784,0,0,0,6.2,8.154.318.318,0,0,0,.308,0,10.878,10.878,0,0,0,6.333-9.94c0-.971,0-1.942,0-2.913a.241.241,0,0,0-.18-.267c-2.053-.847-4.1-1.7-6.156-2.549a.447.447,0,0,0-.309,0c-2.059.848-4.115,1.706-6.173,2.556a.228.228,0,0,0-.173.252C-452.675,206.854-452.68,207.5-452.68,208.442Z" transform="translate(454.156 -201.807)" fill="#9d9d9d"/>
    <path id="Trazado_674" data-name="Trazado 674" d="M-363.038,336.712a1.876,1.876,0,0,1,.15-.209q1.483-1.487,2.969-2.972a.735.735,0,0,1,.77-.224.731.731,0,0,1,.375,1.157,1.58,1.58,0,0,1-.138.149l-3.531,3.531a.754.754,0,0,1-1.2.005q-.984-.983-1.967-1.968a.711.711,0,0,1-.2-.759.705.705,0,0,1,.579-.506.736.736,0,0,1,.682.241q.67.672,1.341,1.343C-363.16,336.548-363.123,336.605-363.038,336.712Z" transform="translate(370.199 -326.796)" fill="#9d9d9d"/>
  </g>
</svg>
