<svg xmlns="http://www.w3.org/2000/svg" width="19.982" height="19.982" viewBox="0 0 19.982 19.982">
  <path id="Icon_awesome-whatsapp" data-name="Icon awesome-whatsapp" d="M16.989,5.154A9.9,9.9,0,0,0,1.4,17.1L0,22.232l5.25-1.378a9.872,9.872,0,0,0,4.732,1.2h0a10,10,0,0,0,10-9.9,9.941,9.941,0,0,0-2.993-7Zm-7,15.236a8.215,8.215,0,0,1-4.193-1.146l-.3-.178-3.113.816.83-3.037-.2-.312a8.246,8.246,0,1,1,15.294-4.376A8.322,8.322,0,0,1,9.987,20.39ZM14.5,14.226c-.245-.125-1.463-.723-1.69-.8s-.393-.125-.558.125-.638.8-.785.972-.29.187-.535.062a6.735,6.735,0,0,1-3.367-2.944c-.254-.437.254-.406.727-1.351a.459.459,0,0,0-.022-.433c-.062-.125-.558-1.343-.763-1.838S7.1,7.6,6.949,7.593s-.308-.009-.473-.009a.917.917,0,0,0-.66.308,2.78,2.78,0,0,0-.865,2.065,4.847,4.847,0,0,0,1.008,2.56,11.056,11.056,0,0,0,4.228,3.738,4.841,4.841,0,0,0,2.971.62A2.534,2.534,0,0,0,14.826,15.7a2.069,2.069,0,0,0,.143-1.178C14.911,14.409,14.746,14.346,14.5,14.226Z" transform="translate(0 -2.25)" fill="#707070"/>
</svg>

