<?xml version="1.0" encoding="utf-8"?>
<!-- Generator: Adobe Illustrator 25.4.1, SVG Export Plug-In . SVG Version: 6.00 Build 0)  -->
<svg version="1.1" id="Capa_1" xmlns="http://www.w3.org/2000/svg" xmlns:xlink="http://www.w3.org/1999/xlink" x="0px" y="0px"
	 viewBox="0 0 512 512" style="enable-background:new 0 0 512 512;" xml:space="preserve">
<style type="text/css">
	.st0{fill:#EAAA00;}
	.st1{fill:#FFFFFF;}
	.st2{fill:#CD163F;}
</style>
<g>
	<circle class="st0" cx="255.95" cy="256.05" r="43.61"/>
	<g>
		<polygon class="st1" points="267.32,298.14 267.31,298.13 267.31,298.13 		"/>
		<path class="st1" d="M285.58,251.56c0,0-29.61,0.12-29.52,0.03l0.04,9.34l17.84-0.03c-2.22,8.22-9.89,14.21-18.91,13.78
			c-9.49-0.45-17.29-8.26-17.73-17.74c-0.5-10.71,8.04-19.56,18.64-19.56c4.86,0,9.27,1.87,12.59,4.91h14.04
			c-5.34-10.32-16.49-17.14-29.12-16.12c-14.58,1.18-26.35,13.07-27.39,27.67c-1.23,17.18,12.05,31.56,28.83,32.14
			c0.35,0.01,0.7,0.03,1.06,0.03c14.9,0,27.25-10.88,29.57-25.12c0.08-0.49,0.13-0.99,0.18-1.49c0.12-1.1,0.21-2.22,0.21-3.35
			C285.92,254.52,285.8,253.03,285.58,251.56z"/>
	</g>
	<g>
		<polygon class="st1" points="244.68,213.86 244.68,213.87 244.68,213.87 		"/>
		<path class="st2" d="M135.09,251.59l91.32,8.84c-0.22-1.46-0.33-2.96-0.33-4.48c0-1.14,0.09-2.25,0.21-3.35
			c0.06-0.5,0.1-1,0.18-1.49c2.32-14.24,14.67-25.12,29.57-25.12c0.35,0,0.71,0.01,1.06,0.03l-9.07-22.81l-3.35,10.65l0,0
			c0,0,0,0,0,0c-11.93,3.21-21.83,11.34-27.39,22.1c-1.03,2-1.92,4.09-2.64,6.26L135.09,251.59l-0.02,0L135.09,251.59l-0.02,0"/>
	</g>
	<g>
		<polygon class="st1" points="267.32,298.14 267.32,298.13 267.32,298.13 		"/>
		<path class="st2" d="M376.92,260.41L376.92,260.41L376.92,260.41l-0.02,0l-79.56,9.37c-0.72,2.17-1.6,4.26-2.64,6.26
			c-5.56,10.76-15.47,18.89-27.39,22.1c0,0,0,0,0,0l0,0l-3.35,10.65l-9.07-22.81c0.35,0.01,0.7,0.03,1.06,0.03
			c14.9,0,27.25-10.88,29.57-25.12c0.08-0.49,0.13-0.99,0.18-1.49c0.12-1.1,0.21-2.22,0.21-3.35c0-1.52-0.12-3.02-0.33-4.48
			l91.32,8.84"/>
	</g>
</g>
</svg>
