<?xml version="1.0" encoding="utf-8"?>
<!-- Generator: Adobe Illustrator 25.4.1, SVG Export Plug-In . SVG Version: 6.00 Build 0)  -->
<svg version="1.1" id="Capa_1" xmlns="http://www.w3.org/2000/svg" xmlns:xlink="http://www.w3.org/1999/xlink" x="0px" y="0px"
	 viewBox="0 0 512 512" style="enable-background:new 0 0 512 512;" xml:space="preserve">
<style type="text/css">
	.st0{fill:#EAAA00;}
	.st1{fill:#FFFFFF;}
	.st2{fill:#CD163F;}
</style>
<g>
	<g>
		<circle class="st0" cx="255.95" cy="184.16" r="43.61"/>
		<g>
			<polygon class="st1" points="267.32,226.25 267.31,226.25 267.31,226.25 			"/>
			<path class="st1" d="M285.58,179.68c0,0-29.61,0.12-29.52,0.03l0.04,9.34l17.84-0.03c-2.22,8.22-9.89,14.21-18.91,13.78
				c-9.49-0.45-17.29-8.26-17.73-17.74c-0.5-10.71,8.04-19.56,18.64-19.56c4.86,0,9.27,1.87,12.59,4.91h14.04
				c-5.34-10.32-16.49-17.14-29.12-16.12c-14.58,1.18-26.35,13.07-27.39,27.67c-1.23,17.18,12.05,31.56,28.83,32.14
				c0.35,0.01,0.7,0.03,1.06,0.03c14.9,0,27.25-10.88,29.57-25.12c0.08-0.49,0.13-0.99,0.18-1.49c0.12-1.1,0.21-2.22,0.21-3.35
				C285.92,182.64,285.8,181.14,285.58,179.68z"/>
		</g>
		<g>
			<polygon class="st1" points="244.68,141.98 244.68,141.98 244.68,141.98 			"/>
			<path class="st2" d="M135.09,179.71l91.32,8.84c-0.22-1.46-0.33-2.96-0.33-4.48c0-1.14,0.09-2.25,0.21-3.35
				c0.06-0.5,0.1-1,0.18-1.49c2.32-14.24,14.67-25.12,29.57-25.12c0.35,0,0.71,0.01,1.06,0.03l-9.07-22.81l-3.35,10.65l0,0
				c0,0,0,0,0,0c-11.93,3.21-21.83,11.34-27.39,22.1c-1.03,2-1.92,4.09-2.64,6.26L135.09,179.71l-0.02,0L135.09,179.71l-0.02,0"/>
		</g>
		<g>
			<polygon class="st1" points="267.32,226.25 267.32,226.25 267.32,226.25 			"/>
			<path class="st2" d="M376.92,188.52L376.92,188.52L376.92,188.52l-0.02,0l-79.56,9.37c-0.72,2.17-1.6,4.26-2.64,6.26
				c-5.56,10.76-15.47,18.89-27.39,22.1c0,0,0,0,0,0l0,0l-3.35,10.65l-9.07-22.81c0.35,0.01,0.7,0.03,1.06,0.03
				c14.9,0,27.25-10.88,29.57-25.12c0.08-0.49,0.13-0.99,0.18-1.49c0.12-1.1,0.21-2.22,0.21-3.35c0-1.52-0.12-3.02-0.33-4.48
				l91.32,8.84"/>
		</g>
	</g>
	<g>
		<path id="Trazado_4_00000180364463204599649780000016964932364839182007_" class="st2" d="M195.28,358.6v15.83
			c-0.01,0.45-0.21,0.87-0.54,1.17c-4.62,3.19-10.09,4.93-15.7,5.01c-13.66,0.32-25-10.5-25.32-24.16
			c-0.32-13.66,10.5-25,24.16-25.32c0.39-0.01,0.77-0.01,1.16,0c5.5-0.08,10.85,1.76,15.13,5.2c0.44,0.33,0.54,0.95,0.22,1.4
			l-1.9,2.85c-0.27,0.4-0.8,0.5-1.2,0.24c-0.06-0.04-0.11-0.09-0.16-0.14c-3.39-2.82-7.68-4.33-12.09-4.28
			c-10.74-0.17-19.59,8.4-19.76,19.14c0,0.12,0,0.25,0,0.37c-0.12,10.72,8.49,19.51,19.21,19.63c0.18,0,0.36,0,0.55,0
			c4.02-0.09,7.91-1.39,11.17-3.74v-9.52h-11.36c-0.44,0-0.7-0.25-0.7-0.76v-2.92c0-0.48,0.25-0.82,0.7-0.82h15.64
			c0.44,0,0.79,0.35,0.79,0.79C195.28,358.58,195.28,358.59,195.28,358.6"/>
		<path id="Trazado_5_00000040574271583849995180000003274572317817393580_" class="st2" d="M233.8,348.68v30.55
			c0.04,0.4-0.26,0.75-0.66,0.79c-0.04,0-0.07,0-0.11,0h-1.93c-0.37,0-0.7-0.25-0.79-0.6l-0.85-5.71
			c-2.34,4.31-6.86,6.99-11.77,6.97c-7.39,0-12.56-5.2-12.56-13.1V348.7c-0.03-0.39,0.26-0.73,0.65-0.76c0.03,0,0.05,0,0.08,0h3.3
			c0.41-0.03,0.76,0.28,0.79,0.69c0,0.02,0,0.05,0,0.07v18.62c-0.19,4.75,3.5,8.76,8.26,8.95c0.27,0.01,0.55,0.01,0.82-0.01
			c5.28,0.17,9.71-3.92,9.96-9.2v-18.4c-0.05-0.37,0.21-0.71,0.59-0.76c0.06-0.01,0.12-0.01,0.17,0h3.3
			c0.37-0.05,0.71,0.21,0.76,0.59C233.81,348.56,233.81,348.62,233.8,348.68"/>
		<path id="Trazado_6_00000108305020143439861710000005268787068209090186_" class="st2" d="M243.1,338.52
			c0-1.76,1.43-3.19,3.19-3.19c1.76,0,3.19,1.43,3.19,3.19c0,1.76-1.43,3.19-3.19,3.19C244.52,341.71,243.1,340.28,243.1,338.52
			 M248.71,348.67v30.58c0,0.48-0.29,0.73-0.79,0.73h-3.3c-0.35,0.05-0.68-0.19-0.73-0.54c-0.01-0.06-0.01-0.13,0-0.19v-30.58
			c0-0.51,0.22-0.76,0.73-0.76h3.3c0.38-0.06,0.73,0.21,0.79,0.59C248.72,348.56,248.72,348.62,248.71,348.67"/>
		<path id="Trazado_7_00000181766721418839378540000012896340624243772595_" class="st2" d="M289.83,330.97v48.25
			c0.04,0.4-0.25,0.75-0.65,0.79c-0.04,0-0.07,0-0.11,0h-1.93c-0.37,0.01-0.71-0.24-0.79-0.6l-0.95-6.34
			c-2.65,4.69-7.65,7.58-13.04,7.52c-8.91,0-15.83-7.23-15.83-16.62c0-9.58,6.88-16.75,15.8-16.75c5.16-0.07,9.98,2.57,12.72,6.95
			l-0.06-23.19c-0.03-0.39,0.27-0.74,0.67-0.76c0.03,0,0.06,0,0.09,0h3.3c0.39-0.05,0.74,0.23,0.79,0.62
			C289.82,330.88,289.82,330.93,289.83,330.97 M285.16,363.93c-0.01-6.57-5.35-11.89-11.93-11.88c-6.57,0.01-11.89,5.35-11.88,11.93
			c0.01,6.53,5.28,11.83,11.81,11.88c6.56,0.06,11.93-5.21,11.99-11.77C285.16,364.04,285.16,363.98,285.16,363.93"/>
		<path id="Trazado_8_00000167386330201810752460000002706900623471179137_" class="st2" d="M329.61,362.88
			c0,1.53-1.02,3.14-2.48,3.14h-24.42c0.84,5.88,5.97,10.18,11.9,9.99c3.13-0.03,6.15-1.17,8.53-3.2c0.35-0.29,0.87-0.25,1.17,0.1
			l1.75,2.32c0.29,0.37,0.25,0.89-0.1,1.21c-3.23,2.71-7.3,4.2-11.52,4.22c-9.16,0.11-16.67-7.22-16.78-16.38c0-0.09,0-0.18,0-0.27
			c-0.22-9.01,6.91-16.5,15.92-16.71c0.11,0,0.21,0,0.32,0c8.39-0.28,15.42,6.29,15.7,14.67
			C329.63,362.26,329.63,362.57,329.61,362.88 M302.76,361.58h22.14c-0.5-5.7-5.41-9.99-11.12-9.74c-5.59,0.04-10.3,4.2-11.04,9.74"
			/>
		<path id="Trazado_9_00000176038213056219749180000008365381993695718579_" class="st2" d="M341.48,356.32
			c0,2.13,1.55,3.43,6.66,4.98c6.85,2.09,10.41,4.85,10.41,10.25c0,5.65-4.88,9.07-11.58,9.07c-4.39-0.02-8.55-1.98-11.36-5.36
			c-0.37-0.35-0.39-0.92-0.05-1.3c0.03-0.04,0.07-0.07,0.11-0.1l1.97-2.03c0.4-0.36,1.02-0.33,1.39,0.07
			c0.03,0.03,0.05,0.06,0.07,0.09c1.96,2.35,4.82,3.75,7.87,3.87c3.77,0,6.66-1.78,6.66-4.5c0-2.57-2.25-4.16-6.82-5.61
			c-6.6-1.97-10.18-4.35-10.18-9.74c0-4.63,3.84-8.72,10.03-8.72c3.83-0.03,7.49,1.64,9.96,4.57c0.38,0.34,0.41,0.93,0.07,1.31
			c-0.05,0.06-0.11,0.11-0.17,0.15l-1.81,1.68c-0.46,0.34-1.1,0.29-1.49-0.13c-1.67-1.85-4.07-2.87-6.57-2.79
			C343.65,352.07,341.49,353.85,341.48,356.32"/>
	</g>
	<g>
		<path class="st2" d="M225.48,313.14c0.08,0.72-0.07,1.27-0.46,1.65c-0.39,0.37-0.95,0.56-1.67,0.56h-9.92
			c-1.31,0-2.04-0.69-2.21-2.08l-2.62-25.25l-16.63,26.38c-0.61,1-1.07,1.58-1.37,1.75c-0.25,0.14-0.57,0.21-0.96,0.21h-0.04
			c-0.39,0-0.73-0.09-1.02-0.27c-0.29-0.18-0.49-0.35-0.6-0.52c-0.11-0.17-0.36-0.56-0.75-1.17l-16.63-26.38l-2.67,25.25
			c-0.11,1.39-0.82,2.08-2.13,2.08h-9.96c-0.72,0-1.28-0.19-1.67-0.56c-0.39-0.37-0.56-0.92-0.5-1.65l6.37-60.38
			c0.14-1.19,0.75-1.79,1.83-1.79h0.21c0.22,0,0.42,0.02,0.6,0.06c0.18,0.04,0.35,0.14,0.5,0.29c0.15,0.15,0.26,0.26,0.31,0.31
			c0.06,0.06,0.17,0.23,0.35,0.52c0.18,0.29,0.28,0.47,0.31,0.52l25.42,40.67l25.42-40.67c0.06-0.11,0.15-0.26,0.27-0.46
			c0.13-0.19,0.22-0.33,0.27-0.42c0.06-0.08,0.14-0.19,0.25-0.33c0.11-0.14,0.22-0.24,0.33-0.29c0.11-0.06,0.25-0.1,0.42-0.15
			c0.17-0.04,0.35-0.06,0.54-0.06h0.17c1.08,0,1.69,0.6,1.83,1.79L225.48,313.14z"/>
		<path class="st2" d="M290.94,312.97c0.33,0.69,0.35,1.27,0.06,1.73c-0.29,0.46-0.81,0.69-1.56,0.69H278.4
			c-1.14,0-1.97-0.64-2.5-1.92l-2.13-5.17h-26.04l-2.08,5.12c-0.47,1.28-1.32,1.92-2.54,1.92h-10.96c-0.78,0-1.31-0.22-1.6-0.67
			c-0.29-0.44-0.28-1.03,0.02-1.75l27.17-60c0.58-1.28,1.49-1.92,2.71-1.92h0.63c1.22,0,2.1,0.65,2.62,1.96L290.94,312.97z
			 M252.73,296.18h16.08l-8.04-19.63L252.73,296.18z"/>
		<path class="st2" d="M299.94,313.22V254.1c0-0.58,0.21-1.08,0.62-1.48c0.42-0.4,0.93-0.6,1.54-0.6h24.25
			c6.14,0,11.65,1.35,16.52,4.04c4.87,2.69,8.67,6.45,11.37,11.27c2.71,4.82,4.06,10.27,4.06,16.35c0,4.56-0.79,8.79-2.37,12.71
			c-1.58,3.92-3.78,7.26-6.58,10.02c-2.81,2.76-6.2,4.94-10.19,6.52c-3.99,1.58-8.3,2.38-12.94,2.38h-24.13
			c-0.61,0-1.13-0.2-1.54-0.6C300.15,314.3,299.94,313.81,299.94,313.22 M314.15,301.85h12.08c5.14,0,9.4-1.76,12.77-5.27
			c3.38-3.51,5.06-7.81,5.06-12.9c0-5.25-1.67-9.64-5.02-13.17c-3.35-3.53-7.58-5.28-12.69-5.25l-12.21,0.04V301.85z"/>
	</g>
</g>
</svg>
