<svg xmlns="http://www.w3.org/2000/svg" xmlns:xlink="http://www.w3.org/1999/xlink" width="131.39" height="50.756" viewBox="0 0 131.39 50.756">
  <defs>
    <clipPath id="clip-path">
      <rect id="Rectángulo_69" data-name="Rectángulo 69" width="131.39" height="50.756" fill="none"/>
    </clipPath>
  </defs>
  <g id="Grupo_81" data-name="Grupo 81" clip-path="url(#clip-path)">
    <path id="Trazado_592" data-name="Trazado 592" d="M167.723,20.085A12.085,12.085,0,1,1,179.808,32.17a12.085,12.085,0,0,1-12.085-12.085" transform="translate(-114.127 -5.444)" fill="#eaaa00"/>
    <path id="Trazado_593" data-name="Trazado 593" d="M215.4,82.318h0Z" transform="translate(-146.567 -56.013)" fill="#fff"/>
    <path id="Trazado_594" data-name="Trazado 594" d="M196.07,26.894s-8.2.034-8.179.009l.011,2.589,4.945-.009a5.175,5.175,0,1,1-1.5-5.156h3.89a8.3,8.3,0,1,0-7.671,12.106c.1,0,.195.007.293.007a8.305,8.305,0,0,0,8.194-6.961c.022-.136.035-.275.051-.414a8.251,8.251,0,0,0,.059-.929,8.37,8.37,0,0,0-.093-1.241" transform="translate(-122.178 -13.494)" fill="#fff"/>
    <path id="Trazado_595" data-name="Trazado 595" d="M195.77,9.238h0Z" transform="translate(-133.212 -6.286)" fill="#fff"/>
    <path id="Trazado_596" data-name="Trazado 596" d="M70.728,13.407l34.893,2.451a8.329,8.329,0,0,1-.093-1.242,8.187,8.187,0,0,1,.059-.929c.016-.138.028-.278.051-.414a8.3,8.3,0,0,1,8.194-6.961c.1,0,.2,0,.293.007L111.611,0l-.929,2.952h0a12.086,12.086,0,0,0-8.321,7.858l-31.634,2.6h0" transform="translate(-48.124)" fill="#cd163f"/>
    <path id="Trazado_597" data-name="Trazado 597" d="M215.4,82.318h0Z" transform="translate(-146.569 -56.013)" fill="#fff"/>
    <path id="Trazado_598" data-name="Trazado 598" d="M248.03,44.384h0l-31.634,2.6a12.084,12.084,0,0,1-8.321,7.858h0l-.929,2.952-2.515-6.32c.1,0,.195.008.293.008a8.305,8.305,0,0,0,8.194-6.961c.022-.136.035-.276.051-.414a8.182,8.182,0,0,0,.059-.929,8.364,8.364,0,0,0-.093-1.241l34.893,2.45" transform="translate(-139.239 -28.534)" fill="#cd163f"/>
    <path id="Trazado_599" data-name="Trazado 599" d="M200.5,113.136V118.7a.576.576,0,0,1-.189.412,9.965,9.965,0,0,1-5.518,1.762,8.7,8.7,0,0,1-.408-17.389q.2,0,.408,0a8.291,8.291,0,0,1,5.318,1.828.359.359,0,0,1,.078.491l-.669,1a.3.3,0,0,1-.421.083.314.314,0,0,1-.057-.049,6.528,6.528,0,0,0-4.247-1.505,6.837,6.837,0,0,0-6.944,6.727c0,.043,0,.087,0,.13a6.825,6.825,0,0,0,6.751,6.9h.192a6.958,6.958,0,0,0,3.924-1.315v-3.346h-3.992c-.156,0-.245-.089-.245-.268v-1.025c0-.167.089-.289.245-.289h5.5a.278.278,0,0,1,.279.278v.011" transform="translate(-126.488 -70.414)" fill="#cd163f"/>
    <path id="Trazado_600" data-name="Trazado 600" d="M252.507,122.2v10.736a.255.255,0,0,1-.23.278.209.209,0,0,1-.037,0h-.68a.287.287,0,0,1-.279-.212l-.3-2.007a4.688,4.688,0,0,1-4.136,2.45,4.283,4.283,0,0,1-4.415-4.6v-6.632a.249.249,0,0,1,.229-.267h1.187a.261.261,0,0,1,.279.243.239.239,0,0,1,0,.025v6.545a3.026,3.026,0,0,0,2.9,3.146q.143.006.287,0a3.394,3.394,0,0,0,3.5-3.233V122.2a.239.239,0,0,1,.206-.268.245.245,0,0,1,.061,0h1.159a.239.239,0,0,1,.267.206.222.222,0,0,1,0,.061" transform="translate(-164.962 -82.969)" fill="#cd163f"/>
    <path id="Trazado_601" data-name="Trazado 601" d="M284.194,109.224a1.12,1.12,0,1,1,1.12,1.12,1.12,1.12,0,0,1-1.12-1.12m1.972,3.567V123.54c0,.167-.1.256-.278.256h-1.159a.225.225,0,0,1-.256-.189.215.215,0,0,1,0-.067V112.792c0-.179.078-.268.256-.268h1.16a.245.245,0,0,1,.279.268" transform="translate(-193.38 -73.559)" fill="#cd163f"/>
    <path id="Trazado_602" data-name="Trazado 602" d="M310.665,102.733V119.69a.255.255,0,0,1-.229.278.259.259,0,0,1-.039,0h-.68a.278.278,0,0,1-.279-.212l-.334-2.229a5.2,5.2,0,0,1-4.582,2.643,5.873,5.873,0,0,1-.011-11.728,5.193,5.193,0,0,1,4.47,2.442l-.023-8.149a.251.251,0,0,1,.235-.267h1.19a.249.249,0,0,1,.277.217.224.224,0,0,1,0,.05m-1.639,11.583a4.165,4.165,0,1,0,0,.055v-.055" transform="translate(-203.428 -69.721)" fill="#cd163f"/>
    <path id="Trazado_603" data-name="Trazado 603" d="M355.444,126.717c0,.538-.358,1.1-.87,1.1H345.99a4.092,4.092,0,0,0,4.183,3.512,4.685,4.685,0,0,0,3-1.126.3.3,0,0,1,.412.034l.613.814a.313.313,0,0,1-.033.424,6.347,6.347,0,0,1-4.047,1.482,5.827,5.827,0,0,1-5.9-5.757c0-.032,0-.064,0-.1a5.737,5.737,0,0,1,5.6-5.874l.112,0a5.341,5.341,0,0,1,5.518,5.157q.005.164,0,.328m-9.441-.457h7.782a3.756,3.756,0,0,0-3.909-3.422,3.943,3.943,0,0,0-3.88,3.423" transform="translate(-234.224 -82.491)" fill="#cd163f"/>
    <path id="Trazado_604" data-name="Trazado 604" d="M387.792,124.419c0,.747.546,1.2,2.341,1.75,2.408.736,3.657,1.706,3.657,3.6,0,1.985-1.717,3.189-4.069,3.189a5.221,5.221,0,0,1-3.991-1.885.322.322,0,0,1-.016-.455.312.312,0,0,1,.039-.035l.69-.714a.346.346,0,0,1,.488.024.362.362,0,0,1,.026.032,3.792,3.792,0,0,0,2.765,1.36c1.327,0,2.341-.624,2.341-1.583,0-.9-.791-1.46-2.4-1.972-2.319-.691-3.579-1.527-3.579-3.422a3.221,3.221,0,0,1,3.526-3.066,4.531,4.531,0,0,1,3.5,1.606.326.326,0,0,1,.026.46.339.339,0,0,1-.059.052l-.635.591a.4.4,0,0,1-.524-.045,2.983,2.983,0,0,0-2.308-.98,1.618,1.618,0,0,0-1.817,1.494" transform="translate(-262.401 -82.5)" fill="#cd163f"/>
    <path id="Trazado_605" data-name="Trazado 605" d="M19.9,119.369a.517.517,0,0,1-.127.456.64.64,0,0,1-.462.156H16.56a.568.568,0,0,1-.612-.577l-.727-7-4.607,7.309a1.558,1.558,0,0,1-.381.485.545.545,0,0,1-.266.058H9.955a.525.525,0,0,1-.283-.075.541.541,0,0,1-.167-.144q-.046-.069-.208-.323L4.69,112.407l-.739,7a.542.542,0,0,1-.589.577H.6a.639.639,0,0,1-.462-.156A.542.542,0,0,1,0,119.369l1.766-16.731q.058-.5.508-.5h.058a.728.728,0,0,1,.167.018.29.29,0,0,1,.139.081l.087.087a1.172,1.172,0,0,1,.1.144q.075.121.087.144l7.043,11.269L17,102.616q.023-.046.075-.127l.075-.115c.015-.023.039-.054.069-.092a.3.3,0,0,1,.092-.081.569.569,0,0,1,.116-.04.6.6,0,0,1,.15-.018h.046q.45,0,.508.5Z" transform="translate(0 -69.503)" fill="#cd163f"/>
    <path id="Trazado_606" data-name="Trazado 606" d="M83.266,119.348a.424.424,0,0,1-.416.669h-3.06a.731.731,0,0,1-.693-.531l-.589-1.432H71.293l-.577,1.42a.711.711,0,0,1-.7.531H66.974a.492.492,0,0,1-.444-.185.5.5,0,0,1,.006-.485l7.528-16.627a.792.792,0,0,1,.751-.531h.173a.753.753,0,0,1,.727.543ZM72.678,114.7h4.457l-2.228-5.438Z" transform="translate(-45.23 -69.528)" fill="#cd163f"/>
    <path id="Trazado_607" data-name="Trazado 607" d="M126.837,120.007V103.623a.547.547,0,0,1,.173-.41.591.591,0,0,1,.427-.167h6.72a9.306,9.306,0,0,1,4.578,1.12,7.962,7.962,0,0,1,3.152,3.123,9.088,9.088,0,0,1,1.126,4.532,9.308,9.308,0,0,1-.658,3.522,8.12,8.12,0,0,1-1.824,2.777,8.373,8.373,0,0,1-2.823,1.807,9.625,9.625,0,0,1-3.585.658h-6.685a.591.591,0,0,1-.427-.167.547.547,0,0,1-.173-.41m3.937-3.152h3.349a4.7,4.7,0,0,0,3.539-1.461,4.964,4.964,0,0,0,1.4-3.574,5.1,5.1,0,0,0-1.391-3.649,4.6,4.6,0,0,0-3.516-1.455l-3.383.011Z" transform="translate(-86.306 -70.118)" fill="#cd163f"/>
  </g>
</svg>
