<svg id="Grupo_89" data-name="Grupo 89" xmlns="http://www.w3.org/2000/svg" xmlns:xlink="http://www.w3.org/1999/xlink" width="121.661" height="125.435" viewBox="0 0 121.661 125.435">
  <defs>
    <clipPath id="clip-path">
      <rect id="Rectángulo_76" data-name="Rectángulo 76" width="121.661" height="125.435" fill="none"/>
    </clipPath>
  </defs>
  <g id="Grupo_88" data-name="Grupo 88" clip-path="url(#clip-path)">
    <path id="Trazado_608" data-name="Trazado 608" d="M77.262,31.163A21.938,21.938,0,1,1,99.2,53.1,21.938,21.938,0,0,1,77.262,31.163" transform="translate(-38.395 -4.584)" fill="#eaaa00"/>
    <path id="Trazado_609" data-name="Trazado 609" d="M132.239,94.926l0,0h0Z" transform="translate(-65.715 -47.173)" fill="#fff"/>
    <path id="Trazado_610" data-name="Trazado 610" d="M120.886,35.691s-14.894.061-14.848.016l.019,4.7,8.977-.016a9.394,9.394,0,1,1-2.721-9.361h7.061a15.074,15.074,0,1,0-13.925,21.976c.177.007.354.014.532.014a15.077,15.077,0,0,0,14.876-12.636c.04-.247.064-.5.092-.752a14.932,14.932,0,0,0,.107-1.687,15.206,15.206,0,0,0-.169-2.254" transform="translate(-45.176 -11.365)" fill="#fff"/>
    <path id="Trazado_611" data-name="Trazado 611" d="M109.6,10.653l0,0h0Z" transform="translate(-54.467 -5.294)" fill="#fff"/>
    <path id="Trazado_612" data-name="Trazado 612" d="M.008,24.339l45.94,4.448a15.2,15.2,0,0,1-.169-2.254,14.919,14.919,0,0,1,.107-1.687c.028-.252.052-.5.092-.752A15.076,15.076,0,0,1,60.855,11.459c.178,0,.355.008.532.014L56.822,0,55.136,5.359l0,0h0A21.937,21.937,0,0,0,40.032,19.627L.008,24.339H0" fill="#cd163f"/>
    <path id="Trazado_613" data-name="Trazado 613" d="M132.242,94.927l0,0h0Z" transform="translate(-65.717 -47.173)" fill="#fff"/>
    <path id="Trazado_614" data-name="Trazado 614" d="M181.206,52.8H181.2l-40.024,4.712a21.945,21.945,0,0,1-15.105,14.266h0l0,0-1.687,5.359-4.564-11.472c.177.006.353.013.532.013a15.077,15.077,0,0,0,14.876-12.636c.04-.248.064-.5.092-.752a14.934,14.934,0,0,0,.107-1.687,15.207,15.207,0,0,0-.169-2.254L181.2,52.8" transform="translate(-59.544 -24.031)" fill="#cd163f"/>
    <path id="Trazado_615" data-name="Trazado 615" d="M39.547,213.625v7.963a.821.821,0,0,1-.271.59,14.258,14.258,0,0,1-7.9,2.522,12.448,12.448,0,1,1-.584-24.889q.292-.008.584,0a11.863,11.863,0,0,1,7.612,2.617.513.513,0,0,1,.112.7l-.958,1.436a.435.435,0,0,1-.684.049,9.345,9.345,0,0,0-6.08-2.155,9.785,9.785,0,0,0-9.94,9.628c0,.062,0,.124,0,.186a9.77,9.77,0,0,0,9.664,9.874c.092,0,.183,0,.275,0a9.959,9.959,0,0,0,5.617-1.881v-4.79H31.281c-.222,0-.351-.127-.351-.383v-1.468c0-.239.127-.414.351-.414h7.869a.4.4,0,0,1,.4.4c0,.006,0,.011,0,.017" transform="translate(-9.262 -99.294)" fill="#cd163f"/>
    <path id="Trazado_616" data-name="Trazado 616" d="M84.471,216.969v15.367a.366.366,0,0,1-.33.4.376.376,0,0,1-.053,0h-.973a.412.412,0,0,1-.4-.3l-.428-2.872a6.711,6.711,0,0,1-5.919,3.507c-3.718,0-6.319-2.617-6.319-6.59v-9.492a.356.356,0,0,1,.327-.382h1.7a.374.374,0,0,1,.4.347c0,.012,0,.024,0,.036v9.368a4.332,4.332,0,0,0,4.153,4.5c.137.006.274,0,.411,0a4.859,4.859,0,0,0,5.011-4.628v-9.255a.342.342,0,0,1,.3-.383.362.362,0,0,1,.088,0h1.66a.342.342,0,0,1,.383.3.318.318,0,0,1,0,.088" transform="translate(-34.81 -107.631)" fill="#cd163f"/>
    <path id="Trazado_617" data-name="Trazado 617" d="M108.02,205.615a1.6,1.6,0,1,1,1.6,1.6,1.6,1.6,0,0,1-1.6-1.6m2.823,5.105V226.1c0,.239-.144.367-.4.367h-1.659a.322.322,0,0,1-.367-.271.307.307,0,0,1,0-.1V210.72c0-.256.111-.383.367-.383h1.66a.351.351,0,0,1,.4.3.32.32,0,0,1,0,.088" transform="translate(-53.681 -101.383)" fill="#cd163f"/>
    <path id="Trazado_618" data-name="Trazado 618" d="M138.2,199.268v24.271a.365.365,0,0,1-.328.4.394.394,0,0,1-.055,0h-.973a.4.4,0,0,1-.4-.3l-.478-3.191a7.441,7.441,0,0,1-6.558,3.782,8.05,8.05,0,0,1-7.962-8.362c0-4.819,3.463-8.426,7.947-8.426a7.432,7.432,0,0,1,6.4,3.495l-.033-11.665a.36.36,0,0,1,.336-.383h1.7a.356.356,0,0,1,.4.311.343.343,0,0,1,0,.072m-2.346,16.579a5.961,5.961,0,1,0,0,.078v-.078" transform="translate(-60.353 -98.835)" fill="#cd163f"/>
    <path id="Trazado_619" data-name="Trazado 619" d="M178.665,223.8c0,.77-.513,1.58-1.245,1.58H165.133a5.857,5.857,0,0,0,5.987,5.026,6.7,6.7,0,0,0,4.293-1.611.428.428,0,0,1,.59.048l.878,1.165a.448.448,0,0,1-.048.607,9.082,9.082,0,0,1-5.793,2.122,8.341,8.341,0,0,1-8.441-8.24c0-.045,0-.091,0-.137a8.211,8.211,0,0,1,8.01-8.407l.16,0a7.645,7.645,0,0,1,7.9,7.382q.008.235,0,.469m-13.514-.654h11.139a5.376,5.376,0,0,0-5.6-4.9,5.645,5.645,0,0,0-5.553,4.9" transform="translate(-80.803 -107.313)" fill="#cd163f"/>
    <path id="Trazado_620" data-name="Trazado 620" d="M203.346,220.5c0,1.069.782,1.723,3.351,2.505,3.447,1.053,5.234,2.442,5.234,5.154,0,2.841-2.457,4.565-5.824,4.565a7.475,7.475,0,0,1-5.714-2.7.461.461,0,0,1-.023-.651.531.531,0,0,1,.055-.051l.989-1.021a.494.494,0,0,1,.7.035.51.51,0,0,1,.036.045,5.425,5.425,0,0,0,3.957,1.947c1.9,0,3.35-.894,3.35-2.266,0-1.292-1.132-2.09-3.431-2.823-3.319-.99-5.122-2.186-5.122-4.9,0-2.331,1.931-4.389,5.046-4.389a6.486,6.486,0,0,1,5.011,2.3.467.467,0,0,1,.036.66.461.461,0,0,1-.085.074l-.91.846a.566.566,0,0,1-.75-.064,4.269,4.269,0,0,0-3.3-1.4c-1.516,0-2.6.894-2.6,2.138" transform="translate(-99.513 -107.32)" fill="#cd163f"/>
    <path id="Trazado_621" data-name="Trazado 621" d="M54.726,150.921a.938.938,0,0,1-.23.828,1.163,1.163,0,0,1-.839.283H48.668a1.031,1.031,0,0,1-1.112-1.048l-1.32-12.7-8.363,13.268a2.843,2.843,0,0,1-.692.881.992.992,0,0,1-.482.1h-.021a.951.951,0,0,1-.513-.136.986.986,0,0,1-.3-.262c-.055-.084-.182-.28-.377-.587l-8.363-13.268-1.342,12.7a.984.984,0,0,1-1.069,1.048H19.7a1.162,1.162,0,0,1-.838-.283.985.985,0,0,1-.251-.828l3.206-30.372q.1-.9.923-.9h.1a1.312,1.312,0,0,1,.3.032.523.523,0,0,1,.252.146l.157.157a2.109,2.109,0,0,1,.178.262q.137.22.157.262l12.786,20.458,12.787-20.458a2.621,2.621,0,0,1,.136-.231c.063-.1.108-.168.136-.209s.07-.1.126-.168a.534.534,0,0,1,.168-.147,1.006,1.006,0,0,1,.21-.073,1.082,1.082,0,0,1,.272-.032H50.6q.817,0,.922.9Z" transform="translate(-9.246 -59.459)" fill="#cd163f"/>
    <path id="Trazado_622" data-name="Trazado 622" d="M125.746,150.858a.77.77,0,0,1-.755,1.215h-5.554a1.327,1.327,0,0,1-1.258-.964l-1.069-2.6h-13.1l-1.048,2.578a1.291,1.291,0,0,1-1.278.964H96.171a.893.893,0,0,1-.807-.336.908.908,0,0,1,.011-.88l13.666-30.183a1.438,1.438,0,0,1,1.363-.964h.314a1.366,1.366,0,0,1,1.32.985Zm-19.221-8.447h8.091l-4.045-9.873Z" transform="translate(-47.338 -59.48)" fill="#cd163f"/>
    <path id="Trazado_623" data-name="Trazado 623" d="M164.868,151.48V121.737a.991.991,0,0,1,.314-.743,1.071,1.071,0,0,1,.776-.3h12.2a16.894,16.894,0,0,1,8.311,2.033,14.459,14.459,0,0,1,5.722,5.67,16.5,16.5,0,0,1,2.043,8.226,16.9,16.9,0,0,1-1.194,6.393,14.745,14.745,0,0,1-3.312,5.042,15.189,15.189,0,0,1-5.125,3.279,17.473,17.473,0,0,1-6.508,1.2H165.958a1.07,1.07,0,0,1-.776-.3.993.993,0,0,1-.314-.745m7.147-5.722h6.079a8.527,8.527,0,0,0,6.424-2.651,9.015,9.015,0,0,0,2.547-6.488A9.252,9.252,0,0,0,184.54,130a8.362,8.362,0,0,0-6.383-2.641l-6.141.021Z" transform="translate(-81.931 -59.977)" fill="#cd163f"/>
  </g>
</svg>
