<?xml version="1.0" encoding="utf-8"?>
<!-- Generator: Adobe Illustrator 25.4.1, SVG Export Plug-In . SVG Version: 6.00 Build 0)  -->
<svg version="1.1" id="Capa_1" xmlns="http://www.w3.org/2000/svg" xmlns:xlink="http://www.w3.org/1999/xlink" x="0px" y="0px"
	 viewBox="0 0 512 512" style="enable-background:new 0 0 512 512;" xml:space="preserve">
<style type="text/css">
	.st0{fill:#EAAA00;}
	.st1{fill:#FFFFFF;}
	.st2{fill:#CD163F;}
</style>
<g>
	<g>
		<circle class="st0" cx="255.67" cy="222.28" r="37.82"/>
		<g>
			<polygon class="st1" points="265.53,258.78 265.53,258.78 265.53,258.78 			"/>
			<path class="st1" d="M281.37,218.39c0,0-25.67,0.11-25.6,0.03l0.03,8.1l15.47-0.03c-1.92,7.13-8.58,12.32-16.4,11.95
				c-8.23-0.39-14.99-7.16-15.37-15.39c-0.43-9.29,6.97-16.96,16.16-16.96c4.21,0,8.04,1.62,10.92,4.26h12.17
				c-4.63-8.95-14.3-14.86-25.25-13.98c-12.65,1.02-22.85,11.34-23.76,23.99c-1.06,14.9,10.45,27.36,25,27.87
				c0.3,0.01,0.61,0.02,0.92,0.02c12.92,0,23.63-9.43,25.64-21.78c0.07-0.43,0.11-0.86,0.16-1.3c0.11-0.96,0.18-1.92,0.18-2.91
				C281.66,220.96,281.56,219.66,281.37,218.39z"/>
		</g>
		<g>
			<polygon class="st1" points="245.9,185.7 245.9,185.7 245.9,185.7 			"/>
			<path class="st2" d="M120.87,218.42l109.19,7.67c-0.19-1.27-0.29-2.56-0.29-3.89c0-0.99,0.08-1.95,0.18-2.91
				c0.05-0.43,0.09-0.87,0.16-1.3c2.01-12.35,12.72-21.78,25.64-21.78c0.31,0,0.61,0.01,0.92,0.02l-7.87-19.78l-2.91,9.24l0,0
				c0,0,0,0,0,0c-10.34,2.79-18.93,9.84-23.75,19.16c-0.9,1.74-1.66,3.55-2.29,5.43L120.87,218.42l-0.01,0L120.87,218.42l-0.01,0"/>
		</g>
		<g>
			<polygon class="st1" points="265.53,258.78 265.53,258.78 265.53,258.78 			"/>
			<path class="st2" d="M390.58,226.06L390.58,226.06L390.58,226.06l-0.01,0l-99,8.12c-0.62,1.88-1.39,3.69-2.29,5.43
				c-4.82,9.33-13.41,16.38-23.75,19.16c0,0,0,0,0,0l0,0l-2.91,9.24l-7.87-19.78c0.3,0.01,0.61,0.02,0.92,0.02
				c12.92,0,23.63-9.43,25.64-21.78c0.07-0.43,0.11-0.86,0.16-1.3c0.11-0.96,0.18-1.92,0.18-2.91c0-1.32-0.1-2.62-0.29-3.89
				l109.19,7.67"/>
		</g>
	</g>
	<g>
		<path id="Trazado_4_00000176738798864956857180000003419141879275428013_" class="st2" d="M281.73,310.15v17.41
			c-0.01,0.49-0.23,0.96-0.59,1.29c-5.08,3.51-11.09,5.43-17.27,5.51c-15.03,0.35-27.49-11.54-27.85-26.57
			c-0.35-15.03,11.54-27.49,26.57-27.85c0.43-0.01,0.85-0.01,1.28,0c6.04-0.09,11.93,1.93,16.64,5.72c0.48,0.36,0.59,1.04,0.24,1.54
			l-2.09,3.14c-0.29,0.44-0.88,0.55-1.32,0.26c-0.07-0.04-0.13-0.1-0.18-0.15c-3.73-3.1-8.44-4.77-13.29-4.71
			c-11.81-0.19-21.54,9.24-21.73,21.05c0,0.14,0,0.27,0,0.41c-0.13,11.8,9.33,21.46,21.13,21.59c0.2,0,0.4,0,0.6,0
			c4.42-0.09,8.7-1.53,12.28-4.11V314.2h-12.49c-0.49,0-0.77-0.28-0.77-0.84v-3.21c0-0.52,0.28-0.91,0.77-0.91h17.2
			c0.48,0,0.87,0.39,0.87,0.87C281.74,310.13,281.74,310.14,281.73,310.15"/>
		<path id="Trazado_5_00000054965190718893234220000015464965984770610360_" class="st2" d="M324.09,299.24v33.6
			c0.04,0.44-0.28,0.83-0.72,0.87c-0.04,0-0.08,0-0.12,0h-2.13c-0.41,0-0.77-0.27-0.87-0.66l-0.93-6.28
			c-2.58,4.74-7.55,7.69-12.94,7.67c-8.13,0-13.82-5.72-13.82-14.41v-20.75c-0.03-0.43,0.29-0.8,0.72-0.84c0.03,0,0.06,0,0.08,0
			h3.63c0.45-0.03,0.84,0.31,0.87,0.76c0,0.03,0,0.05,0,0.08v20.48c-0.21,5.23,3.85,9.63,9.08,9.84c0.3,0.01,0.6,0.01,0.9-0.01
			c5.8,0.19,10.68-4.32,10.96-10.12v-20.24c-0.05-0.41,0.24-0.78,0.65-0.84c0.06-0.01,0.13-0.01,0.19,0h3.63
			c0.41-0.05,0.78,0.24,0.84,0.65C324.11,299.11,324.11,299.17,324.09,299.24"/>
		<path id="Trazado_6_00000016034155718182436510000004017286920851236790_" class="st2" d="M334.32,288.07
			c0-1.94,1.57-3.51,3.51-3.51c1.94,0,3.51,1.57,3.51,3.51s-1.57,3.51-3.51,3.51C335.89,291.58,334.32,290.01,334.32,288.07
			 M340.49,299.23v33.63c0,0.52-0.31,0.8-0.87,0.8H336c-0.38,0.06-0.74-0.21-0.8-0.59c-0.01-0.07-0.01-0.14,0-0.21v-33.63
			c0-0.56,0.24-0.84,0.8-0.84h3.63c0.42-0.06,0.81,0.23,0.87,0.65C340.5,299.11,340.5,299.17,340.49,299.23"/>
		<path id="Trazado_7_00000085966005495632611290000009264076008891784598_" class="st2" d="M385.72,279.77v53.06
			c0.04,0.44-0.28,0.83-0.72,0.87c-0.04,0-0.08,0-0.12,0h-2.13c-0.41,0.01-0.78-0.26-0.87-0.66l-1.05-6.98
			c-2.92,5.16-8.41,8.33-14.34,8.27c-9.8,0-17.41-7.95-17.41-18.28c0-10.54,7.57-18.42,17.37-18.42c5.68-0.07,10.98,2.82,13.99,7.64
			l-0.07-25.5c-0.03-0.43,0.3-0.81,0.73-0.84c0.03,0,0.06,0,0.09,0h3.63c0.43-0.05,0.82,0.25,0.87,0.68
			C385.71,279.66,385.71,279.72,385.72,279.77 M380.58,316.02c-0.02-7.23-5.89-13.08-13.12-13.06c-7.23,0.02-13.08,5.89-13.06,13.12
			c0.02,7.18,5.81,13.01,12.99,13.06c7.22,0.07,13.12-5.73,13.19-12.95C380.58,316.13,380.58,316.07,380.58,316.02"/>
		<path id="Trazado_8_00000112631533587692347970000007248566298672130958_" class="st2" d="M429.48,314.86
			c0,1.68-1.12,3.45-2.72,3.45h-26.86c0.92,6.47,6.56,11.2,13.09,10.99c3.45-0.03,6.77-1.28,9.39-3.52c0.39-0.32,0.96-0.27,1.29,0.1
			l1.92,2.55c0.32,0.4,0.27,0.98-0.1,1.33c-3.55,2.98-8.03,4.62-12.67,4.64c-10.07,0.12-18.33-7.95-18.45-18.02c0-0.1,0-0.2,0-0.3
			c-0.24-9.91,7.6-18.14,17.51-18.38c0.12,0,0.23,0,0.35-0.01c9.22-0.31,16.95,6.91,17.27,16.14
			C429.49,314.18,429.49,314.52,429.48,314.86 M399.94,313.43h24.35c-0.55-6.27-5.95-10.99-12.23-10.71
			c-6.15,0.05-11.33,4.61-12.14,10.71"/>
		<path id="Trazado_9_00000152246795351863852600000000219003837536902324_" class="st2" d="M442.53,307.64
			c0,2.34,1.71,3.77,7.33,5.48c7.54,2.3,11.44,5.34,11.44,11.27c0,6.21-5.37,9.98-12.73,9.98c-4.83-0.02-9.4-2.18-12.49-5.9
			c-0.41-0.38-0.43-1.02-0.05-1.42c0.04-0.04,0.08-0.08,0.12-0.11l2.16-2.23c0.44-0.4,1.13-0.37,1.53,0.08
			c0.03,0.03,0.06,0.06,0.08,0.1c2.15,2.58,5.3,4.13,8.65,4.26c4.15,0,7.32-1.95,7.32-4.95c0-2.83-2.48-4.57-7.5-6.17
			c-7.26-2.16-11.2-4.78-11.2-10.71c0-5.1,4.22-9.59,11.03-9.59c4.22-0.04,8.23,1.8,10.96,5.02c0.42,0.38,0.46,1.02,0.08,1.44
			c-0.06,0.06-0.12,0.12-0.19,0.16l-1.99,1.85c-0.5,0.38-1.21,0.32-1.64-0.14c-1.84-2.03-4.48-3.16-7.22-3.07
			C444.91,302.97,442.54,304.93,442.53,307.64"/>
		<path class="st2" d="M112.39,332.51c0.07,0.63-0.06,1.1-0.4,1.43c-0.34,0.32-0.82,0.49-1.45,0.49h-8.6c-1.13,0-1.77-0.6-1.92-1.81
			l-2.28-21.9L83.34,333.6c-0.53,0.87-0.93,1.37-1.19,1.52c-0.22,0.12-0.49,0.18-0.83,0.18h-0.04c-0.34,0-0.63-0.08-0.89-0.23
			c-0.25-0.16-0.43-0.31-0.52-0.45c-0.1-0.14-0.31-0.48-0.65-1.01l-14.42-22.87l-2.31,21.9c-0.1,1.2-0.71,1.81-1.84,1.81h-8.64
			c-0.63,0-1.11-0.16-1.44-0.49c-0.34-0.33-0.48-0.8-0.43-1.43l5.53-52.36c0.12-1.03,0.65-1.55,1.59-1.55h0.18
			c0.19,0,0.37,0.02,0.52,0.05c0.16,0.04,0.3,0.12,0.43,0.25c0.13,0.13,0.22,0.22,0.27,0.27c0.05,0.05,0.15,0.2,0.31,0.45
			c0.16,0.25,0.25,0.4,0.27,0.45l22.04,35.27l22.04-35.27c0.05-0.1,0.13-0.23,0.23-0.4c0.11-0.17,0.19-0.29,0.24-0.36
			c0.05-0.07,0.12-0.17,0.22-0.29c0.1-0.12,0.19-0.2,0.29-0.25c0.1-0.05,0.22-0.09,0.36-0.13c0.14-0.04,0.3-0.05,0.47-0.05h0.15
			c0.94,0,1.47,0.52,1.59,1.55L112.39,332.51z"/>
		<path class="st2" d="M169.16,332.37c0.29,0.6,0.31,1.1,0.05,1.5c-0.25,0.4-0.7,0.6-1.36,0.6h-9.58c-0.99,0-1.71-0.55-2.17-1.66
			l-1.84-4.48h-22.58l-1.81,4.44c-0.41,1.11-1.14,1.66-2.2,1.66h-9.5c-0.67,0-1.14-0.19-1.39-0.58c-0.25-0.39-0.25-0.89,0.02-1.52
			l23.56-52.03c0.51-1.11,1.29-1.66,2.35-1.66h0.54c1.06,0,1.82,0.57,2.28,1.7L169.16,332.37z M136.03,317.81h13.95L143,300.79
			L136.03,317.81z"/>
		<path class="st2" d="M176.96,332.59v-51.27c0-0.51,0.18-0.93,0.54-1.28c0.36-0.35,0.81-0.52,1.34-0.52h21.03
			c5.32,0,10.1,1.17,14.33,3.51c4.23,2.34,7.52,5.6,9.86,9.77c2.35,4.18,3.52,8.91,3.52,14.18c0,3.95-0.69,7.62-2.06,11.02
			c-1.37,3.4-3.28,6.29-5.71,8.69c-2.43,2.4-5.38,4.28-8.83,5.65c-3.46,1.37-7.2,2.06-11.22,2.06h-20.92
			c-0.53,0-0.98-0.18-1.34-0.52C177.14,333.52,176.96,333.09,176.96,332.59 M189.29,322.72h10.48c4.46,0,8.15-1.52,11.07-4.57
			c2.93-3.05,4.39-6.78,4.39-11.18c0-4.55-1.45-8.36-4.35-11.42c-2.9-3.06-6.57-4.58-11-4.55l-10.59,0.04V322.72z"/>
	</g>
</g>
</svg>
